<svg width="32" height="32" viewBox="0 0 32 32" fill="none" xmlns="http://www.w3.org/2000/svg">
<g clip-path="url(#clip0_47_1218)">
<path d="M16 0.296265C7.1775 0.296265 0 7.47376 0 16.2963C0 18.2601 0.352 20.1785 1.046 21.9981C1.13612 22.2343 1.36112 22.3796 1.59981 22.3796C1.67 22.3796 1.74144 22.367 1.81088 22.3405C2.11656 22.2239 2.26994 21.8815 2.15331 21.5756C1.51094 19.8915 1.18512 18.1153 1.18512 16.2963C1.18519 8.12726 7.831 1.48145 16 1.48145C24.169 1.48145 30.8148 8.12726 30.8148 16.2963C30.8148 16.6235 31.0801 16.8888 31.4074 16.8888C31.7346 16.8888 32 16.6235 32 16.2963C32 7.47376 24.8225 0.296265 16 0.296265Z" fill="black"/>
<path d="M16.0083 3.25919C12.4516 3.25919 8.76688 4.98012 6.15819 7.86262C3.84769 10.4156 2.68351 13.5111 2.96794 16.3552L3.03376 17.0207C3.49669 21.6308 3.49613 21.6308 2.62694 23.3506C2.56644 23.4704 2.50182 23.598 2.43326 23.7349C2.28701 24.0277 2.40551 24.3836 2.69813 24.53C2.78319 24.5726 2.87351 24.5926 2.96263 24.5926C3.17994 24.5926 3.38926 24.4726 3.49313 24.2649C3.56069 24.1297 3.62438 24.0036 3.68426 23.8852C4.70957 21.8567 4.70032 21.7638 4.21201 16.9024L4.14532 16.2372C3.89419 13.7256 4.94651 10.963 7.03276 8.65787C9.42032 6.01944 12.7809 4.44431 16.0083 4.44431C22.5436 4.44431 27.8686 9.761 27.8686 16.2962V19.2591C27.8686 19.5864 28.1339 19.8517 28.4612 19.8517C28.7885 19.8517 29.0538 19.5864 29.0538 19.2591V16.2962C29.0538 9.10756 23.1969 3.25919 16.0083 3.25919Z" fill="black"/>
<path d="M19.7089 6.92701C18.5286 6.45926 17.2806 6.22214 15.9999 6.22214C13.2989 6.22214 10.7697 7.25658 8.87795 9.13489C6.97426 11.0252 5.92582 13.5685 5.92582 16.2962C5.92582 17.8095 6.06526 19.1293 6.18838 20.2936C6.50607 23.3005 6.68113 24.957 4.41188 26.4698C4.13963 26.6514 4.06595 27.0193 4.24757 27.2916C4.3617 27.4629 4.54963 27.5555 4.7412 27.5555C4.85407 27.5555 4.96832 27.5233 5.06932 27.456C7.93507 25.5455 7.68432 23.1728 7.36695 20.1692C7.24701 19.0338 7.11101 17.747 7.11101 16.2962C7.11101 11.3118 11.0155 7.40732 15.9999 7.40732C17.1305 7.40732 18.2315 7.61639 19.2723 8.02882C19.5763 8.1492 19.9209 8.00045 20.0416 7.6962C20.1621 7.39201 20.0132 7.04751 19.7089 6.92701Z" fill="black"/>
<path d="M26.0739 16.2734C26.0666 13.0391 24.4918 9.98505 21.8579 8.09949C21.5919 7.90912 21.2217 7.97018 21.0311 8.23649C20.8408 8.50255 20.9019 8.8728 21.1681 9.0633C23.4978 10.7311 24.8888 13.435 24.8888 16.2962C24.8888 16.3114 24.8893 16.3266 24.8905 16.3417C24.8963 16.4177 25.4617 24.0056 24.3138 28.5971C24.2346 28.9145 24.4275 29.2362 24.7451 29.3157C24.7933 29.3277 24.8416 29.3335 24.8892 29.3335C25.1547 29.3335 25.3963 29.1538 25.4637 28.8844C26.6381 24.187 26.1153 16.826 26.0739 16.2734Z" fill="black"/>
<path d="M22.6818 13.8572C21.6615 11.0627 18.9762 9.18506 15.9999 9.18506C12.0789 9.18506 8.88877 12.375 8.88877 16.2962C8.88877 16.3207 8.89034 16.3454 8.8934 16.3697C8.89921 16.4162 9.46952 21.0782 8.89471 25.1013C8.8484 25.4252 9.07352 25.7254 9.39765 25.7717C9.42602 25.7758 9.45421 25.7778 9.48215 25.7778C9.77221 25.7778 10.0258 25.5644 10.0681 25.2689C10.6436 21.2402 10.1335 16.7541 10.0741 16.2609C10.0931 13.0096 12.7441 10.3702 15.9999 10.3702C18.4804 10.3702 20.7182 11.9349 21.5683 14.2637C21.6806 14.5712 22.0212 14.729 22.3283 14.6172C22.6358 14.505 22.7939 14.1647 22.6818 13.8572Z" fill="black"/>
<path d="M16.0083 12.1481C13.721 12.1481 11.8561 14.0089 11.8561 16.2962C11.8561 16.3193 11.8552 16.3425 11.858 16.3653C11.8696 16.4639 12.9807 26.2608 10.1856 30.1739C9.99531 30.4403 10.0565 30.8104 10.3229 31.0006C10.4273 31.0753 10.5474 31.111 10.6666 31.111C10.8514 31.111 11.0335 31.0248 11.1491 30.8629C14.1486 26.6637 13.1261 17.044 13.0373 16.2636C13.0548 14.6447 14.3856 13.3332 16.0085 13.3332C17.6423 13.3332 18.9797 14.6623 18.9797 16.2961V20.4443C18.9797 20.7715 19.245 21.0369 19.5723 21.0369C19.8996 21.0369 20.1649 20.7716 20.1649 20.4443V16.2961C20.1649 14.0089 18.2956 12.1481 16.0083 12.1481Z" fill="black"/>
<path d="M28.4997 20.6961C28.1772 20.6676 27.8861 20.9087 27.8578 21.2348L27.4962 25.3671C27.4676 25.6933 27.7088 25.9806 28.0348 26.0091C28.0523 26.0106 28.0698 26.0114 28.0872 26.0114C28.391 26.0114 28.6498 25.7789 28.6768 25.4704L29.0383 21.3381C29.067 21.0119 28.8258 20.7246 28.4997 20.6961Z" fill="black"/>
<path d="M9.21762 27.0624C8.94549 26.8809 8.57743 26.9545 8.39587 27.2268L7.21068 29.0045C7.02912 29.2769 7.10274 29.6447 7.37499 29.8263C7.47599 29.8937 7.59012 29.9258 7.70312 29.9258C7.89468 29.9258 8.08262 29.8332 8.19674 29.6619L9.38193 27.8842C9.56355 27.6119 9.48993 27.244 9.21762 27.0624Z" fill="black"/>
<path d="M23.0979 16.1721C23.0294 15.8521 22.7142 15.6482 22.3943 15.7168C22.0743 15.7853 21.8704 16.1003 21.939 16.4203C21.9564 16.5013 23.6404 24.579 20.8031 30.2534C20.6569 30.5462 20.7755 30.9021 21.0682 31.0485C21.1532 31.091 21.2437 31.1111 21.3328 31.1111C21.5501 31.1111 21.7594 30.9911 21.8633 30.7834C24.8845 24.7411 23.1722 16.5192 23.0979 16.1721Z" fill="black"/>
<path d="M16.5751 15.56C16.4955 15.2423 16.1731 15.0497 15.8564 15.1287C15.5389 15.2082 15.3459 15.5299 15.4251 15.8474C15.4366 15.8932 16.5488 20.4799 14.8452 25.5904C14.7418 25.9009 14.9096 26.2364 15.2201 26.34C15.2821 26.3607 15.3454 26.3706 15.4076 26.3706C15.6556 26.3706 15.8869 26.2136 15.9696 25.9652C17.7812 20.5306 16.6251 15.7603 16.5751 15.56Z" fill="black"/>
<path d="M15.0348 27.5979C14.7313 27.4763 14.3863 27.6239 14.2646 27.928L13.0794 30.8909C12.9579 31.1948 13.1056 31.5397 13.4095 31.6612C13.4817 31.6901 13.5561 31.7038 13.6295 31.7038C13.8646 31.7038 14.0871 31.5628 14.1798 31.3311L15.365 28.3681C15.4865 28.0643 15.3388 27.7194 15.0348 27.5979Z" fill="black"/>
<path d="M19.5562 22.7914C19.5559 22.7914 19.5557 22.7914 19.5556 22.7914C19.2288 22.7914 18.9636 23.0681 18.963 23.3949C18.963 23.4294 18.9372 26.8954 17.2331 30.8718C17.1042 31.1726 17.2435 31.5239 17.5445 31.6529C17.6206 31.6854 17.6997 31.7023 17.7775 31.7023C18.0074 31.7023 18.2262 31.5685 18.3225 31.3437C20.1275 27.1322 20.1482 23.5454 20.1482 23.3952C20.1482 23.0681 19.8832 22.7914 19.5562 22.7914Z" fill="black"/>
</g>
<defs>
<clipPath id="clip0_47_1218">
<rect width="32" height="32" fill="white"/>
</clipPath>
</defs>
</svg>
