<svg width="24" height="24" viewBox="0 0 24 24" fill="none" xmlns="http://www.w3.org/2000/svg">
<path d="M11.7792 7.06828C13.7072 8.3198 12.9792 8.44036 12.2808 8.89941C11.6802 9.29395 11.8857 9.78581 12.0459 10.1243C15.15 9.71109 17.5868 9.99581 19.4264 10.5205C19.5606 10.212 20.5421 7.38694 12.5304 5.49525C12.1364 5.40188 11.717 5.45053 11.3672 5.65374C10.9392 5.90278 10.6709 6.34828 11.7792 7.06828Z" fill="#F4A026"/>
<path d="M11.8562 18.5452C15.8354 18.1541 17.6167 15.7382 17.9151 15.2905C16.4654 15.2905 14.6853 15.085 12.5054 14.5552C12.9362 15.3386 12.8722 16.7509 11.6751 16.8556C11.1039 16.9054 10.8713 17.1658 10.8028 17.4709C10.6635 18.0952 11.2206 18.6075 11.8562 18.5452Z" fill="#F4A026"/>
<path d="M19.7001 17.5867C19.5082 17.5867 19.3302 17.4639 19.2688 17.2713C19.1929 17.0331 19.3244 16.7783 19.5627 16.7024C20.231 16.4893 20.6704 16.1844 20.8333 15.8204C20.9817 15.489 20.8635 15.195 20.8623 15.1921C20.7602 14.9638 20.8625 14.696 21.0908 14.5939C21.3191 14.4917 21.5869 14.5941 21.6889 14.8224C21.7188 14.8891 21.9715 15.4943 21.6598 16.1904C21.3848 16.8049 20.7718 17.2675 19.8378 17.5652C19.7921 17.5797 19.7457 17.5867 19.7001 17.5867Z" fill="#F4A026"/>
<path d="M8.19117 10.8154C5.89786 9.93234 4.07372 8.52093 1.78036 7.63785C0.908391 7.30204 0 8.02598 0 9.05662V9.09135C0 9.85392 0.511734 10.4953 1.18964 10.5823C1.24331 10.5892 1.29703 10.596 1.35066 10.6029C2.02856 10.6899 2.5403 11.3312 2.5403 12.0938V12.2427C2.5403 13.0052 2.02856 13.6465 1.35066 13.7336C1.29698 13.7405 1.24327 13.7473 1.18964 13.7542C0.511734 13.8412 0 14.4825 0 15.2451V15.2798C0 16.3105 0.908391 17.0344 1.78036 16.6987C4.07372 15.8156 5.89781 14.2415 8.19117 13.3584C21.7398 18.196 24 12.9337 24 12.9337C24 12.9337 19.4505 7.67123 8.19117 10.8154Z" fill="#E46A53"/>
<path d="M21.1907 13.1887C21.4408 13.1887 21.6435 12.9859 21.6435 12.7358C21.6435 12.4858 21.4408 12.283 21.1907 12.283C20.9406 12.283 20.7379 12.4858 20.7379 12.7358C20.7379 12.9859 20.9406 13.1887 21.1907 13.1887Z" fill="#B15240"/>
<path d="M17.9151 12.6127C17.5183 12.6127 17.1967 12.2911 17.1967 11.8943C17.1967 11.4975 17.5183 11.1759 17.9151 11.1759V12.6127Z" fill="#F4A026"/>
<path d="M17.9151 14.0495C17.5183 14.0495 17.1967 13.7279 17.1967 13.3311C17.1967 12.9344 17.5183 12.6127 17.9151 12.6127V14.0495Z" fill="#F4A026"/>
<path d="M15.5377 12.6127C15.141 12.6127 14.8193 12.2911 14.8193 11.8943C14.8193 11.4975 15.1409 11.1759 15.5377 11.1759V12.6127Z" fill="#F4A026"/>
<path d="M15.5377 14.0495C15.141 14.0495 14.8193 13.7279 14.8193 13.3311C14.8193 12.9344 15.1409 12.6127 15.5377 12.6127V14.0495Z" fill="#F4A026"/>
</svg>
