<svg width="39" height="42" viewBox="0 0 39 42" fill="none" xmlns="http://www.w3.org/2000/svg">
<path d="M4.2808 8.19158C6.54169 8.19158 8.37532 6.35829 8.37532 4.09604C8.37523 1.83329 6.54169 0 4.2808 0C2.01728 0 0.183228 1.83329 0.183228 4.09604C0.183228 6.35829 2.01728 8.19158 4.2808 8.19158Z" fill="black"/>
<path d="M21.9338 28.2934L28.0566 33.8773C28.1539 33.9668 28.2715 34.0162 28.3834 34.0735H29.6824C29.8246 33.9983 29.963 33.9101 30.078 33.7841L33.2023 30.3579L34.0162 26.5357H21.5585L21.9338 28.2934Z" fill="black"/>
<path d="M27.519 15.9231C26.9344 15.3909 26.0299 15.4325 25.496 16.0163L21.0153 20.9299H33.0094L27.519 15.9231Z" fill="black"/>
<path d="M38.5709 22.8514C38.3045 22.5222 37.9032 22.3312 37.4816 22.3312H18.6616C17.0081 20.7321 17.7606 21.4601 15.3057 19.0858C15.4181 18.9024 15.5014 18.6991 15.541 18.4754C15.7055 17.5222 15.0678 16.6149 14.1149 16.45L8.5152 15.4777L5.89822 10.1245C5.88989 10.1082 5.87484 10.0993 5.86702 10.0829C5.87901 10.0972 5.89406 10.1068 5.90655 10.1212L8.55983 13.5755V12.5064C8.55983 10.5591 6.98072 8.97977 5.03318 8.97977H3.52819C1.57912 8.97977 0 10.5591 0 12.5064L0.0176818 39.8982C0.0176818 41.0593 0.958214 42 2.11994 42C3.28158 42 4.22211 41.0593 4.22211 39.8982V27.3712H5.62373V39.8982C5.62373 40.5042 5.45507 41.0653 5.1839 41.5629C5.53838 41.8332 5.97507 42 6.45545 42C7.6176 42 8.55762 41.0593 8.55762 39.8982L8.55924 20.4641L6.79378 20.1574L6.27234 20.0669C5.38698 19.9131 4.71355 19.2522 4.50017 18.4351L2.74254 11.6662C2.73991 11.6527 2.74407 11.6388 2.74152 11.6253C2.74671 11.6376 2.74569 11.6506 2.75087 11.6628L5.75923 17.8199C6.00542 18.325 6.48053 18.6808 7.03478 18.7765L11.8465 19.6121L11.8325 19.6256C16.208 23.8567 15.0449 22.7317 16.8144 24.443L19.5265 37.1686C19.6665 37.815 20.2369 38.2777 20.8979 38.2777H22.3474C22.0492 38.6683 21.8644 39.1503 21.8644 39.679C21.8644 40.9606 22.9042 42 24.1851 42C25.4676 42 26.5064 40.9606 26.5064 39.679C26.5064 39.1503 26.3226 38.6683 26.0245 38.2777H29.5511C29.2529 38.6683 29.0681 39.1503 29.0681 39.679C29.0681 40.9606 30.1085 42 31.3893 42C32.6718 42 33.7101 40.9606 33.7101 39.679C33.7101 39.1503 33.5269 38.6683 33.2287 38.2777H34.6792C35.3391 38.2777 35.9111 37.815 36.049 37.1686L38.8517 24.0247C38.9406 23.6116 38.8364 23.1798 38.5709 22.8514ZM33.5444 35.4751H22.0307L19.8275 25.1343H35.7491L33.5444 35.4751Z" fill="black"/>
</svg>
