<svg width="20" height="24" viewBox="0 0 20 24" fill="none" xmlns="http://www.w3.org/2000/svg">
<path d="M19.9286 20.2422L18.2106 17.3803C17.4187 16.0593 16.9998 14.5474 16.9998 13.0064V10.4995C16.9998 6.64072 13.8588 3.49985 10 3.49985C6.14118 3.49985 3.00032 6.64072 3.00032 10.4995V13.0064C3.00032 14.5474 2.58132 16.0593 1.78936 17.3803L0.0714172 20.2422C-0.0215788 20.3961 -0.023592 20.5891 0.0644309 20.7451C0.15344 20.9022 0.320407 20.9991 0.500399 20.9991H19.4995C19.6795 20.9991 19.8466 20.9022 19.9355 20.7451C20.0236 20.5891 20.0216 20.3961 19.9286 20.2422ZM1.38339 19.9991L2.64633 17.8942C3.53228 16.4182 4.00026 14.7284 4.00026 13.0064V10.4995C4.00026 7.19068 6.69115 4.49979 10 4.49979C13.3089 4.49979 15.9998 7.19068 15.9998 10.4995V13.0064C15.9998 14.7284 16.4678 16.4182 17.3527 17.8942L18.6166 19.9991H1.38339Z" fill="#56CCF2"/>
<path d="M10.0001 0C8.89711 0 8.00015 0.896962 8.00015 1.99993V3.99986C8.00015 4.2758 8.22415 4.49981 8.50014 4.49981C8.77613 4.49981 9.00014 4.2758 9.00014 3.99982V1.99993C9.00014 1.44795 9.44811 0.999988 10.0001 0.999988C10.5521 0.999988 11 1.44795 11 1.99993V3.99986C11 4.2758 11.224 4.49981 11.5 4.49981C11.776 4.49981 12 4.2758 12 3.99982V1.99993C12 0.896962 11.1031 0 10.0001 0Z" fill="#56CCF2"/>
<path d="M12.164 20.2462C12.023 20.0082 11.718 19.9302 11.4791 20.0671C11.24 20.2071 11.1601 20.5142 11.3 20.7522C11.43 20.9731 11.5011 21.2382 11.5011 21.4991C11.5011 22.3261 10.8281 22.999 10.0011 22.999C9.1741 22.999 8.50114 22.3261 8.50114 21.4991C8.50114 21.2382 8.57215 20.9731 8.70213 20.7522C8.84111 20.5131 8.76114 20.2071 8.52312 20.0671C8.28215 19.9302 7.97813 20.0082 7.83817 20.2462C7.61716 20.6242 7.50017 21.0571 7.50017 21.4991C7.50022 22.8781 8.62113 23.999 10.0001 23.999C11.3791 23.999 12.5 22.8781 12.502 21.4991C12.502 21.0571 12.385 20.6242 12.164 20.2462Z" fill="#56CCF2"/>
</svg>
