<svg width="24" height="24" viewBox="0 0 24 24" fill="none" xmlns="http://www.w3.org/2000/svg">
<path d="M23.585 19.8161V18.2317C23.585 17.5843 23.2021 16.9987 22.6095 16.74C20.6824 15.8991 18.9434 14.5026 17.7127 12.8078C16.3963 10.995 15.7005 8.92619 15.7005 6.82508C15.7005 6.2852 15.742 5.73909 15.8237 5.20201C15.916 4.5947 15.6672 3.99402 15.1743 3.63435L10.5155 0.234622C10.2524 0.0426449 9.93042 -0.0354739 9.60871 0.0149454C9.287 0.0652091 9.00414 0.237734 8.81222 0.500776L2.57148 9.05349C2.43827 8.99959 2.29288 8.98164 2.14733 9.00436C1.93512 9.03756 1.74854 9.15132 1.62197 9.32483L0.154208 11.3363C-0.10707 11.6944 -0.028329 12.1984 0.329793 12.4597L14.4743 22.7811C15.3994 23.4562 16.4937 23.8131 17.639 23.8131H23.196C23.6393 23.8131 24 23.4524 24 23.0091V20.5192C24 20.217 23.8322 19.9534 23.585 19.8161ZM9.4407 0.959374C9.51015 0.864241 9.61244 0.801787 9.72879 0.783632C9.84498 0.765218 9.96154 0.793592 10.0568 0.8631L14.7156 4.26288C14.9732 4.45075 15.103 4.76577 15.0544 5.08499C14.9668 5.66071 14.9224 6.24614 14.9224 6.82508C14.9224 7.27164 14.9519 7.71665 15.0093 8.15828L13.7879 8.56543C13.584 8.63343 13.4739 8.85373 13.5418 9.05753C13.5962 9.22056 13.748 9.32363 13.9108 9.32363C13.9516 9.32363 13.9931 9.31715 14.0339 9.30356L15.1397 8.93496C15.2025 9.23789 15.2793 9.53859 15.3688 9.83659L14.2028 10.2253C13.999 10.2933 13.8889 10.5136 13.9568 10.7174C14.0112 10.8804 14.163 10.9835 14.3258 10.9835C14.3666 10.9835 14.4081 10.977 14.4489 10.9634L15.6189 10.5734C15.7286 10.8619 15.8515 11.1472 15.9864 11.4289L14.7864 11.8289C14.5826 11.8968 14.4724 12.1172 14.5404 12.321C14.5947 12.484 14.7465 12.5871 14.9094 12.5871C14.9501 12.5871 14.9916 12.5806 15.0325 12.567L16.3508 12.1276C16.5063 12.4021 16.6743 12.6723 16.8541 12.9378L15.5256 13.3807C15.3217 13.4486 15.2116 13.669 15.2795 13.8728C15.3339 14.0358 15.4857 14.1389 15.6485 14.1389C15.6893 14.1389 15.7308 14.1324 15.7716 14.1188L17.1981 13.6433C17.2431 13.6283 17.2833 13.6055 17.3182 13.5774C18.611 15.2415 20.3659 16.6096 22.2981 17.4529C22.6072 17.5878 22.8069 17.8934 22.8069 18.2314V19.715H17.6388C17.3677 19.715 17.1086 19.6305 16.8897 19.4707L3.21479 9.49185L9.4407 0.959374ZM23.2219 23.0091C23.2219 23.0233 23.2102 23.035 23.196 23.035H17.6389C16.6596 23.035 15.7239 22.7299 14.9329 22.1526L0.788391 11.8312C0.776824 11.8228 0.774334 11.8065 0.782737 11.795L2.2505 9.78348C2.25206 9.78135 2.25683 9.77476 2.26746 9.77315C2.26897 9.77289 2.27047 9.77279 2.27182 9.77279C2.27981 9.77279 2.28484 9.77642 2.28671 9.77782L16.4311 20.0995C16.7842 20.3572 17.2018 20.4933 17.6389 20.4933H23.196C23.2102 20.4933 23.2219 20.505 23.2219 20.5193V23.0091Z" fill="black"/>
</svg>
