<svg width="56" height="56" viewBox="0 0 56 56" fill="none" xmlns="http://www.w3.org/2000/svg">
<rect width="56" height="56" rx="12" fill="#6D5FFD" fill-opacity="0.1"/>
<g clip-path="url(#clip0_32_134)">
<path d="M20.7778 30.7925C19.7944 30.7925 18.995 31.5803 18.9763 32.5592C18.957 33.5694 19.8031 34.3962 20.8134 34.3962H23.0157C22.0054 34.3962 21.1593 35.2231 21.1786 36.2333C21.1973 37.2122 21.9967 38 22.9801 38H41.6246C41.8319 38 41.9999 37.8319 41.9999 37.6246V23.9604C41.9999 23.753 41.8318 23.585 41.6246 23.585H36.7945C36.5943 23.3848 32.3455 18.9576 32.3455 18.9576C31.4855 18.0976 30.0911 18.0976 29.231 18.9576C28.3709 19.8177 28.3709 21.2121 29.231 22.0722L30.7882 23.585H21.5787H21.7789C20.7954 23.585 19.9961 24.3729 19.9773 25.3518C19.958 26.3619 20.8041 27.1888 21.8144 27.1888H20.2128C19.2025 27.1888 18.3564 28.0157 18.3757 29.0258C18.3944 30.0048 19.1938 30.7925 20.1772 30.7925" fill="#FF675C"/>
<path d="M20.7778 30.7925C19.7944 30.7925 18.995 31.5803 18.9763 32.5592C18.957 33.5694 19.8031 34.3962 20.8134 34.3962H23.0157C22.0054 34.3962 21.1593 35.2231 21.1786 36.2333C21.1973 37.2122 21.9967 38 22.9801 38H41.6246C41.8319 38 41.9999 37.8319 41.9999 37.6246V23.9604C41.9999 23.753 41.8318 23.585 41.6246 23.585H36.7945C36.5943 23.3848 32.3455 18.9576 32.3455 18.9576C31.4855 18.0976 30.0911 18.0976 29.231 18.9576C28.3709 19.8177 28.3709 21.2121 29.231 22.0722L30.7882 23.585H21.5787H21.7789C20.7954 23.585 19.9961 24.3729 19.9773 25.3518C19.958 26.3619 20.8041 27.1888 21.8144 27.1888H20.2128C19.2025 27.1888 18.3564 28.0157 18.3757 29.0258C18.3944 30.0048 19.1938 30.7925 20.1772 30.7925" fill="#FF675C"/>
<path d="M21.8146 26.2878C20.9705 26.2878 20.2416 25.7105 20.0356 24.9317C19.9978 25.0768 19.9772 25.229 19.9772 25.3859C19.9772 26.3873 20.8137 27.1887 21.815 27.1887H25.6331V26.5962C25.6331 26.4259 25.495 26.2878 25.3247 26.2878H21.8146Z" fill="#DB3D5A"/>
<path d="M20.1773 29.8916C19.3394 29.8916 18.6356 29.3195 18.4338 28.5449C18.3932 28.6984 18.3725 28.8595 18.3757 29.0257C18.3944 30.0047 19.1938 30.7925 20.1773 30.7925H25.633V30.1999C25.633 30.0296 25.4949 29.8915 25.3246 29.8915H20.1773V29.8916Z" fill="#DB3D5A"/>
<path d="M20.8135 33.4953C19.9694 33.4953 19.2403 32.9179 19.0344 32.1389C18.9965 32.2846 18.976 32.4374 18.9761 32.5952C18.9768 33.5958 19.8129 34.3962 20.8135 34.3962H25.633V33.8036C25.633 33.6333 25.4949 33.4953 25.3246 33.4953H20.8135V33.4953Z" fill="#DB3D5A"/>
<path d="M21.2398 35.7311C21.2006 35.8778 21.179 36.0317 21.1784 36.1905C21.1741 37.1858 22.019 38 23.0143 38H41.6247C41.832 38 42 37.8319 42 37.6246V37.0659H22.9802C22.1467 37.0659 21.4456 36.4997 21.2398 35.7311Z" fill="#DB3D5A"/>
<path d="M32.8696 25.5366C32.7984 25.4572 32.6968 25.4119 32.5902 25.4119C32.4836 25.4119 32.382 25.4572 32.3108 25.5366C31.9936 25.89 29.2117 29.0407 29.2117 30.7925C29.2117 32.6554 30.7272 34.171 32.5902 34.171C34.4531 34.171 35.9687 32.6554 35.9687 30.7925C35.9687 29.0407 33.1868 25.89 32.8696 25.5366Z" fill="#FAEC8E"/>
<path d="M33.5162 33.2451C31.6532 33.2451 30.1376 31.7295 30.1376 29.8665C30.1376 28.5831 31.6308 26.5488 32.554 25.4138C32.4609 25.4228 32.3739 25.4662 32.3108 25.5366C31.9936 25.89 29.2117 29.0407 29.2117 30.7925C29.2117 32.6554 30.7272 34.171 32.5902 34.171C33.7578 34.171 34.7889 33.5755 35.3959 32.6722C34.8582 33.0338 34.2115 33.2451 33.5162 33.2451Z" fill="#FBC96C"/>
<path d="M33.5412 32.1439C34.2599 32.1439 34.8426 31.5613 34.8426 30.8426C34.8426 30.1239 34.2599 29.5412 33.5412 29.5412C32.8225 29.5412 32.2399 30.1239 32.2399 30.8426C32.2399 31.5613 32.8225 32.1439 33.5412 32.1439Z" fill="white"/>
<path d="M32.7404 28.7404C33.1274 28.7404 33.4411 28.4266 33.4411 28.0396C33.4411 27.6526 33.1274 27.3389 32.7404 27.3389C32.3534 27.3389 32.0397 27.6526 32.0397 28.0396C32.0397 28.4266 32.3534 28.7404 32.7404 28.7404Z" fill="white"/>
<path d="M22.6292 19.2087C22.3744 19.1748 21.7321 19.0329 21.2735 18.4483C20.9477 18.0326 20.8695 17.5818 20.8519 17.3501C20.8371 17.1543 20.6739 17.0031 20.4776 17.0031C20.2813 17.0031 20.1181 17.1543 20.1032 17.3501C20.0856 17.5818 20.0074 18.0326 19.6816 18.4482C19.223 19.033 18.5808 19.1749 18.3259 19.2087C18.1394 19.2335 18 19.3926 18 19.5808C18 19.769 18.1394 19.9281 18.326 19.9529C18.5808 19.9868 19.2231 20.1287 19.6816 20.7133C20.0075 21.129 20.0857 21.5798 20.1033 21.8115C20.1181 22.0073 20.2813 22.1585 20.4776 22.1585C20.6739 22.1585 20.8371 22.0073 20.8519 21.8115C20.8695 21.5798 20.9477 21.129 21.2735 20.7134C21.7321 20.1286 22.3744 19.9867 22.6292 19.9529C22.8158 19.9281 22.9552 19.769 22.9552 19.5808C22.9552 19.3926 22.8157 19.2335 22.6292 19.2087Z" fill="#5CC4E0"/>
<path d="M39.2464 19.2087C38.9916 19.1748 38.3493 19.0329 37.8907 18.4483C37.5649 18.0326 37.4867 17.5818 37.4691 17.3501C37.4543 17.1543 37.2911 17.0031 37.0948 17.0031C36.8985 17.0031 36.7353 17.1543 36.7205 17.3501C36.7028 17.5818 36.6247 18.0326 36.2988 18.4483C35.8403 19.0329 35.198 19.1749 34.9432 19.2087C34.7565 19.2335 34.6172 19.3926 34.6172 19.5808C34.6172 19.7691 34.7566 19.9281 34.9432 19.953C35.198 19.9868 35.8403 20.1287 36.2988 20.7134C36.6247 21.1291 36.7028 21.5799 36.7205 21.8116C36.7353 22.0073 36.8985 22.1586 37.0948 22.1586C37.2911 22.1586 37.4543 22.0073 37.4692 21.8116C37.4868 21.5799 37.565 21.1291 37.8907 20.7134C38.3494 20.1287 38.9916 19.9868 39.2465 19.9529C39.4331 19.9281 39.5724 19.7691 39.5724 19.5808C39.5725 19.3926 39.433 19.2335 39.2464 19.2087Z" fill="#5CC4E0"/>
<path d="M29.8367 16.2056C29.5819 16.1717 28.9396 16.0298 28.481 15.4452C28.1552 15.0295 28.077 14.5787 28.0594 14.347C28.0446 14.1512 27.8814 14 27.6851 14C27.4888 14 27.3256 14.1512 27.3108 14.347C27.2931 14.5787 27.2149 15.0295 26.8892 15.4451C26.4305 16.0299 25.7883 16.1718 25.5334 16.2056C25.3469 16.2304 25.2075 16.3895 25.2075 16.5777C25.2075 16.7659 25.3469 16.925 25.5335 16.9498C25.7883 16.9837 26.4306 17.1256 26.8892 17.7102C27.215 18.1259 27.2932 18.5767 27.3108 18.8084C27.3257 19.0042 27.4888 19.1554 27.6851 19.1554C27.8815 19.1554 28.0446 19.0042 28.0595 18.8084C28.0771 18.5767 28.1553 18.1259 28.4811 17.7103C28.9397 17.1255 29.5819 16.9836 29.8368 16.9498C30.0233 16.925 30.1627 16.7659 30.1627 16.5777C30.1627 16.3895 30.0233 16.2304 29.8367 16.2056Z" fill="#5CC4E0"/>
</g>
<defs>
<clipPath id="clip0_32_134">
<rect width="24" height="24" fill="white" transform="translate(18 14)"/>
</clipPath>
</defs>
</svg>
