<svg width="96" height="50" viewBox="0 0 96 50" fill="none" xmlns="http://www.w3.org/2000/svg">
<path d="M87.6635 0.961524L87.9904 2.8846L86.5116 3.136L86.8385 5.05907L88.3173 4.80768L88.6442 6.73076L87.1654 6.98215L87.4924 8.90523L88.9712 8.65383L89.2981 10.5769L87.8193 10.8283L88.1462 12.7514L89.625 12.5L89.9519 14.4231L88.4731 14.6745L88.8001 16.5975L90.2788 16.3461L90.6058 18.2692L89.127 18.5206L89.4539 20.4437L90.9327 20.1923L91.2596 22.1154L89.7808 22.3668L90.1078 24.2899L91.5865 24.0385L91.9135 25.9615L90.4347 26.2129L90.7616 28.136L92.2404 27.8846L92.5673 29.8077L91.0885 30.0591L91.4154 31.9822L92.8942 31.7308L93.2212 33.6538L91.7424 33.9052L92.0693 35.8283L93.5481 35.5769L93.875 37.5L92.3962 37.7514L92.7231 39.6745L94.2019 39.4231L94.5288 41.3462L93.0501 41.5975L93.377 43.5206L94.8558 43.2692L95.1827 45.1923L93.7039 45.4437L94.0308 47.3668L95.5096 47.1154L95.745 48.5H95V49.1807L94.3578 49.2899L94.4785 50H93V48.5H91V50H89V48.5H87V50H85V48.5H83V50H81V48.5H79V50H77V48.5H75V50H73V48.5H71V50H69V48.5H67V50H65V48.5H63V50H61V48.5H59V50H57V48.5H55V50H53V48.5H51V50H49V48.5H47V50H45V48.5H43V50H41V48.5H39V50H37V48.5H35V50H33V48.5H31V50H29V48.5H27V50H25V48.5H23V50H21V48.5H19V50H17V48.5H15V50H13V48.5H11V50H9V48.5H7V50H5V48.5H3V50H1.5V49.0385H1V48.5H0V47.1154H1.5V45.1923H0V43.2692H1.5V41.3461H0V39.4231H1.5V37.5H0V35.5769H1.5V33.6538H0V31.7308H1.5V29.8077H0V27.8846H1.5V25.9615H0V24.0385H1.5V22.1154H0V20.1923H1.5V18.2692H0V16.3462H1.5V14.4231H0V12.5H1.5V10.5769H0V8.65385H1.5V6.73077H0V4.80769H1.5V2.88462H0V1.5H0.994286V0.961538H1.5V0H2.98293V1.5H4.97157V0H6.96021V1.5H8.94884V0H10.9375V1.5H12.9261V0H14.9148V1.5H16.9034V0H18.892V1.5H20.8807V0H22.8693V1.5H24.858V0H26.8466V1.5H28.8352V0H30.8239V1.5H32.8125V0H34.8011V1.5H36.7898V0H38.7784V1.5H40.7671V0H42.7557V1.5H44.7443V0H46.733V1.5H48.7216V0H50.7102V1.5H52.6989V0H54.6875V1.5H56.6761V0H58.6648V1.5H60.6534V0H62.642V1.5H64.6307V0H66.6193V1.5H68.608V0H70.5966V1.5H72.5852V0H74.5739V1.5H76.5625V0H78.5511V1.5H80.5398V0H82.5284V1.5H84.517V0H86.5057V0.169034L86.0212 0.251393L86.1847 1.21292L86.5057 1.15835V1.5H87.5V0.989312L87.6635 0.961524Z" stroke="black" stroke-opacity="0.96" stroke-width="3" stroke-dasharray="2 2"/>
</svg>
