<svg width="42" height="25" viewBox="0 0 42 25" fill="none" xmlns="http://www.w3.org/2000/svg">
<path d="M15.5365 24.8867C10.5298 24.4492 6.1129 22.5908 3.23418 19.7173C1.5962 18.0793 0.602212 16.3013 0.154218 14.2066C-0.0522799 13.2546 -0.05053 11.6726 0.154218 10.7119C0.77896 7.79994 2.66194 5.25197 5.62465 3.30949C12.3831 -1.12321 22.736 -1.10046 29.4314 3.36199C30.3204 3.95348 30.8944 4.42423 31.6994 5.21697C32.7143 6.21971 33.4283 7.21544 34.1808 8.68193C34.2088 8.73443 34.3471 8.80442 34.4888 8.83243C34.9613 8.93042 35.5966 9.30142 36.1058 9.77741C36.5013 10.1449 36.8075 10.5474 37.5618 11.6901C38.323 12.8416 41.7687 18.1598 41.9787 18.5081C42.0592 18.6446 41.8982 18.8616 41.7162 18.8616C41.5885 18.8616 41.4957 18.7741 41.3067 18.4766L39.3538 15.4456C36.0288 10.2972 35.8486 10.0592 34.9228 9.59542L34.4363 9.35042H33.0066C31.5786 9.35042 31.5769 9.35217 31.5419 9.50267C31.3529 10.3252 31.3179 10.5282 31.3599 10.5667C31.3861 10.5912 32.1963 11.0532 33.1623 11.5921L34.9158 12.5756L34.8073 12.8049C34.7461 12.9309 34.6778 13.0359 34.6533 13.0359C34.6288 13.0359 33.1518 12.2169 31.3721 11.2176C29.5906 10.2202 28.0296 9.37317 27.9036 9.33817C27.3961 9.19817 26.6192 9.75817 26.6192 10.2639C26.6192 10.7749 26.7714 10.9254 29.8986 13.4856C31.8498 15.0851 32.9663 16.0441 33.1361 16.2716C33.4476 16.6846 33.7608 17.2936 34.0513 18.0426C34.5588 19.3621 35.3866 20.097 36.7428 20.4365L37.189 20.5485L37.1523 20.7935C37.1419 20.8874 37.1202 20.9797 37.0875 21.0683C37.0298 21.133 36.1303 20.846 35.6106 20.5958C34.7968 20.2055 34.2368 19.649 33.6873 18.6813C33.448 18.7533 33.2116 18.8344 32.9786 18.9246C32.2943 19.1731 32.2611 19.1941 31.6136 19.8258C28.8556 22.5173 24.9007 24.2375 20.1232 24.822C19.348 24.9182 16.3608 24.9602 15.5365 24.8867ZM20.2912 24.059C22.4822 23.7685 24.1814 23.3345 25.9612 22.6065C27.8284 21.8418 29.5889 20.7428 30.8209 19.5738L31.3056 19.1118L30.0841 18.5291C28.7786 17.9043 28.6491 17.8011 28.4829 17.2428C28.3779 16.8928 28.4969 16.5166 28.8294 16.1561L29.0901 15.8743L28.5231 15.4438C28.0751 15.1026 27.9351 14.9539 27.8476 14.7264C27.7789 14.5494 27.7556 14.3581 27.7797 14.1698C27.8038 13.9815 27.8747 13.8022 27.9859 13.6484L28.1574 13.4069L26.3672 13.0919C25.6842 12.9778 25.0038 12.8483 24.3267 12.7034C24.0589 12.6229 23.7842 12.3184 23.7142 12.0191C23.6757 11.8581 24.5542 7.57419 24.7502 6.9617C24.8186 6.8041 24.9209 6.66347 25.0497 6.54976C25.1785 6.43606 25.3308 6.35206 25.4957 6.3037C25.7914 6.24946 31.0694 7.17694 31.3319 7.33094C31.7483 7.57244 31.8796 7.96444 31.7484 8.56468L31.6924 8.81668H31.9846C32.1456 8.81668 32.5271 8.79568 32.8298 8.77293L33.3828 8.72918L33.1081 8.22168C32.2786 6.6782 30.7806 5.12772 28.9291 3.89573C28.0646 3.32174 26.2219 2.4135 25.1124 2.01626C23.3888 1.41897 21.6019 1.02318 19.7872 0.836768C18.781 0.73177 16.1438 0.731769 15.1673 0.838518C12.8241 1.09402 10.6978 1.62426 8.83762 2.417C4.53267 4.25273 1.63645 7.29244 0.896209 10.7592C0.703711 11.6639 0.686211 13.2494 0.864709 14.0736C1.2567 15.8936 2.11244 17.4703 3.50543 18.9386C6.3404 21.9258 10.6751 23.7615 15.8708 24.178C16.5655 24.2322 19.5825 24.1517 20.2912 24.059ZM19.341 20.797C19.0732 20.72 18.802 20.3998 18.746 20.097C18.7075 19.8975 18.753 19.761 19.0365 19.2116C20.1845 16.9891 20.6832 14.9469 20.6832 12.4654C20.6832 10.0679 20.2422 8.20418 19.145 5.96771C18.9087 5.48821 18.7163 5.04197 18.7163 4.97897C18.7163 4.74097 18.9157 4.39623 19.131 4.26148C19.4267 4.07423 19.922 4.10923 20.16 4.33148C20.251 4.41898 20.4872 4.80572 20.685 5.19597C21.4707 6.73595 22.008 8.42818 22.274 10.1887C22.4385 11.2789 22.4717 13.3439 22.3405 14.3414C22.1199 16.109 21.6115 17.8286 20.8355 19.4321C20.363 20.4033 20.069 20.804 19.8205 20.804C19.7607 20.8055 19.7014 20.8143 19.6437 20.8303C19.5416 20.8404 19.4385 20.8291 19.341 20.797ZM16.1455 19.1258C15.736 19.0051 15.4385 18.5011 15.5575 18.1231C15.5873 18.0321 15.7798 17.6103 15.988 17.1868C16.8665 15.3948 17.2323 13.4716 17.0538 11.5851C16.9068 10.0347 16.6285 9.05642 15.9285 7.62494C15.4578 6.6642 15.4368 6.51545 15.7098 6.13046C15.9688 5.76296 16.618 5.70171 16.9575 6.01496C17.1938 6.23196 17.9288 7.76494 18.2105 8.63293C19.1479 11.5108 19.0036 14.6318 17.8045 17.4108C17.1885 18.8563 16.7563 19.3026 16.1455 19.1258ZM12.8521 17.4301C12.721 17.3665 12.6054 17.2749 12.5135 17.1618C12.4216 17.0488 12.3556 16.9169 12.3201 16.7756C12.2833 16.6111 12.3446 16.4291 12.6473 15.8183C13.7533 13.5784 13.7656 11.4189 12.6823 9.22967C12.2081 8.26718 12.1976 8.07644 12.6001 7.69669C12.7978 7.50944 12.8818 7.47619 13.1601 7.47619C13.6273 7.47619 13.8706 7.71244 14.2871 8.56993C14.9293 9.88941 15.1935 11.0339 15.19 12.5004C15.19 14.0054 14.9433 15.0414 14.2573 16.4326C13.8636 17.2288 13.6693 17.4388 13.2773 17.4931C13.1326 17.506 12.9868 17.4844 12.8521 17.4301ZM9.77736 15.8516C9.53961 15.7258 9.36012 15.5124 9.27686 15.2566C9.20161 14.9906 9.26286 14.7789 9.56561 14.2819C9.9541 13.6431 10.0451 13.3019 10.0451 12.4654C10.0451 11.6306 9.9541 11.2876 9.56561 10.6489C9.45045 10.4662 9.35205 10.2735 9.27161 10.0732C9.14736 9.65317 9.49736 9.13692 9.9681 9.04767C10.3671 8.97242 10.6418 9.15267 11.0093 9.72491C11.53 10.5516 11.8063 11.5086 11.8063 12.4855C11.8063 13.4624 11.53 14.4195 11.0093 15.2461C10.6331 15.8271 10.2149 16.0336 9.77736 15.8516ZM32.6846 18.4293C33.0398 18.3016 33.3478 18.1826 33.3671 18.1616C33.3881 18.1423 33.3198 17.9148 33.2148 17.6558C33.0013 17.1273 33.0363 17.1396 32.2803 17.2848C31.4614 17.4423 30.9871 17.3023 30.0929 16.6443C29.8479 16.4641 29.5976 16.3171 29.5329 16.3171C29.4699 16.3171 29.3316 16.4098 29.2231 16.5253C28.9956 16.7703 28.9606 17.1553 29.1461 17.3828C29.3089 17.5806 31.5559 18.6498 31.8236 18.6551C31.9408 18.6586 32.3293 18.5571 32.6846 18.4293ZM32.3311 16.7091C32.6636 16.6426 32.7003 16.6198 32.6426 16.5131C32.5796 16.3941 29.4716 13.8146 29.2021 13.6571C28.9799 13.5276 28.7996 13.5574 28.6159 13.7551C28.0751 14.3326 28.1381 14.4551 29.5364 15.5278C31.2234 16.8193 31.4019 16.8963 32.3311 16.7091ZM28.1591 12.8049C28.1591 12.7874 27.8074 12.4846 27.3751 12.1311C26.3112 11.2544 26.0837 10.9272 26.0837 10.2797C26.0837 9.73717 26.4442 9.21567 27.0252 8.91467C27.3685 8.76062 27.7534 8.72552 28.1189 8.81493C28.3254 8.88143 29.2529 9.38367 30.5391 10.1239L30.8104 10.2797L31.0344 9.21917C31.2619 8.13418 31.2671 7.85069 31.0554 7.78419C30.9906 7.76494 29.7499 7.53919 28.2991 7.28369C25.7214 6.8287 25.4397 6.80245 25.3207 6.9967C25.2559 7.1017 24.2759 11.6446 24.2759 11.8389C24.2759 11.9351 24.3249 12.0559 24.3844 12.1049C24.4439 12.1556 25.2804 12.3359 26.2429 12.5074C28.1014 12.8416 28.1591 12.8504 28.1591 12.8049Z" fill="#1A8C1F" fill-opacity="0.99"/>
</svg>
