<svg width="36" height="36" viewBox="0 0 36 36" fill="none" xmlns="http://www.w3.org/2000/svg">
<path d="M17.8983 0C15.9659 0 14.3915 1.45143 14.3915 3.23286C14.3915 5.01286 15.9504 6.46429 17.8983 6.46429C19.8152 6.46429 21.4036 5.01286 21.4036 3.23286C21.4036 1.45143 19.8307 0 17.8983 0ZM22.3148 7.14286H13.4818C11.066 7.14286 9.14286 9.05857 9.14286 11.2857V15.8571H12.2421V12C12.2421 11.7557 12.442 11.5714 12.707 11.5714C12.972 11.5714 13.1719 11.7557 13.1719 12V15.8571H22.6247V12C22.6247 11.7557 22.8246 11.5714 23.0896 11.5714C23.3546 11.5714 23.5545 11.7557 23.5545 12V15.8571H26.6538V11.2857C26.6538 9.07286 24.7152 7.14286 22.3148 7.14286ZM0 16.5714V20.4286H3.56416V36H32.2324V20.4286H35.9516V16.5714H0ZM26.192 28.2857C26.0556 29.0743 25.287 29.6429 24.4192 29.6429H11.5324C10.6646 29.6429 9.89598 29.0743 9.75961 28.2857C9.73792 28.16 9.72707 28.0329 9.72707 27.9043C9.72707 26.2386 11.5742 24.7971 14.266 24.0957L13.7763 25.8543C13.7236 26.0386 13.877 26.2257 14.0846 26.2314C14.1993 26.2343 14.3109 26.1786 14.3713 26.0871L15.9101 23.7757C16.4835 23.7 17.0816 23.6529 17.6969 23.6429L17.0801 25.8529C17.0336 26.0186 17.1576 26.1943 17.3389 26.2257C17.4706 26.2486 17.6085 26.1914 17.6783 26.0871L19.2697 23.6929C19.8431 23.74 20.3963 23.8171 20.9232 23.9214L20.3855 25.8529C20.294 26.1814 20.793 26.3729 20.9821 26.0871C20.9836 26.0857 22.2094 24.2443 22.2094 24.2443C24.6144 24.99 26.2245 26.35 26.2245 27.9043C26.2245 28.0329 26.2137 28.16 26.192 28.2857Z" fill="black"/>
</svg>
