<svg width="392" height="232" viewBox="0 0 392 232" fill="none" xmlns="http://www.w3.org/2000/svg">
<g filter="url(#filter0_d_7_123)">
<path fill-rule="evenodd" clip-rule="evenodd" d="M369.472 6.00701H22.5275C13.4035 6.00701 6.00701 12.7481 6.00701 21.0636V210.803C6.00701 219.119 13.4035 225.86 22.5275 225.86H369.472C378.596 225.86 385.993 219.119 385.993 210.803V21.0636C385.993 12.7481 378.596 6.00701 369.472 6.00701Z" fill="#55EEE5"/>
</g>
<mask id="mask0_7_123" style="mask-type:alpha" maskUnits="userSpaceOnUse" x="6" y="6" width="380" height="220">
<path fill-rule="evenodd" clip-rule="evenodd" d="M369.472 6.00701H22.5275C13.4035 6.00701 6.00701 12.7481 6.00701 21.0636V210.803C6.00701 219.119 13.4035 225.86 22.5275 225.86H369.472C378.596 225.86 385.993 219.119 385.993 210.803V21.0636C385.993 12.7481 378.596 6.00701 369.472 6.00701Z" fill="white"/>
</mask>
<g mask="url(#mask0_7_123)">
<path fill-rule="evenodd" clip-rule="evenodd" d="M302.353 136.139C335.363 135.738 354.701 18.4205 383.502 34.5402C412.947 51.02 416.801 31.5593 445.019 50.0584C475.324 69.9254 492.284 96.9019 500.584 132.154C509.888 171.67 520.279 202.803 496.579 235.775C472.683 269.021 459.267 289.197 420.022 300.938C388.612 310.334 356.807 310.579 324.794 317.662C282.698 326.977 242.442 363.196 201.645 349.256C161.843 335.657 155.167 331.341 153.679 289.338C152.093 244.547 151.565 254.46 169.197 213.249C178.508 191.488 199.332 188.348 213.249 169.197C227.001 150.274 240.117 152.017 257.3 136.139C281.698 113.594 269.123 136.542 302.353 136.139Z" fill="#FFB800"/>
<path fill-rule="evenodd" clip-rule="evenodd" d="M230.783 158.185C250.756 218.649 139.581 268.757 85.9025 303.013C44.5963 329.373 -17.0889 304.471 -54.8493 335.7C-105.165 377.311 -93.4468 475.478 -153.533 501.029C-207.1 523.808 -267.195 477.974 -316.439 446.937C-364.52 416.634 -425.626 382.014 -431.981 325.537C-438.854 264.445 -376.317 219.439 -348.187 164.775C-333.059 135.379 -309.55 110.32 -304.42 77.6602C-295.057 18.0484 -356.744 -66.7676 -306.557 -100.271C-258.216 -132.541 -208.689 -41.3963 -153.533 -23.0659C-120.041 -11.9356 -80.3474 -32.5705 -49.7777 -14.9341C-19.2063 2.70325 154.095 -23.9288 183.227 -4.00467C246.04 38.9535 206.914 85.9273 230.783 158.185Z" fill="#1867FF" fill-opacity="0.6"/>
</g>
<path opacity="0.401246" d="M337.138 189.274C346.522 189.274 354.13 182.314 354.13 173.729C354.13 165.144 346.522 158.185 337.138 158.185C327.753 158.185 320.145 165.144 320.145 173.729C320.145 182.314 327.753 189.274 337.138 189.274Z" fill="white"/>
<path opacity="0.859468" d="M324.716 203.925C334.101 203.925 341.709 196.965 341.709 188.38C341.709 179.795 334.101 172.835 324.716 172.835C315.332 172.835 307.724 179.795 307.724 188.38C307.724 196.965 315.332 203.925 324.716 203.925Z" fill="white"/>
<path opacity="0.859468" d="M345.833 204.292C355.218 204.292 362.826 197.332 362.826 188.747C362.826 180.161 355.218 173.202 345.833 173.202C336.449 173.202 328.841 180.161 328.841 188.747C328.841 197.332 336.449 204.292 345.833 204.292Z" fill="#D6E7E6"/>
<defs>
<filter id="filter0_d_7_123" x="0" y="0" width="392" height="231.867" filterUnits="userSpaceOnUse" color-interpolation-filters="sRGB">
<feFlood flood-opacity="0" result="BackgroundImageFix"/>
<feColorMatrix in="SourceAlpha" type="matrix" values="0 0 0 0 0 0 0 0 0 0 0 0 0 0 0 0 0 0 127 0" result="hardAlpha"/>
<feOffset/>
<feGaussianBlur stdDeviation="3"/>
<feComposite in2="hardAlpha" operator="out"/>
<feColorMatrix type="matrix" values="0 0 0 0 0 0 0 0 0 0 0 0 0 0 0 0 0 0 0.25 0"/>
<feBlend mode="normal" in2="BackgroundImageFix" result="effect1_dropShadow_7_123"/>
<feBlend mode="normal" in="SourceGraphic" in2="effect1_dropShadow_7_123" result="shape"/>
</filter>
</defs>
</svg>
