<svg width="60" height="77" viewBox="0 0 60 77" fill="none" xmlns="http://www.w3.org/2000/svg">
<path d="M54.7574 1.01316L54.8972 3.03948L53.4008 3.14273L53.5406 5.16905L55.037 5.0658L55.1768 7.09212L53.6804 7.19536L53.8202 9.22168L55.3166 9.11844L55.4564 11.1448L53.96 11.248L54.0998 13.2743L55.5962 13.1711L55.736 15.1974L54.2396 15.3006L54.3794 17.327L55.8758 17.2237L56.0156 19.25L54.5192 19.3533L54.659 21.3796L56.1554 21.2763L56.2952 23.3026L54.7988 23.4059L54.9386 25.4322L56.435 25.329L56.5748 27.3553L55.0784 27.4585L55.2182 29.4848L56.7146 29.3816L56.8544 31.4079L55.358 31.5112L55.4978 33.5375L56.9942 33.4342L57.134 35.4605L55.6376 35.5638L55.7774 37.5901L57.2738 37.4869L57.4137 39.5132L55.9172 39.6164L56.057 41.6427L57.5535 41.5395L57.6933 43.5658L56.1968 43.669L56.3366 45.6954L57.8331 45.5921L57.9729 47.6184L56.4764 47.7217L56.6162 49.748L58.1127 49.6447L58.2525 51.6711L56.756 51.7743L56.8958 53.8006L58.3923 53.6974L58.5321 55.7237L57.0356 55.8269L57.1754 57.8532L58.6719 57.75L58.8117 59.7763L57.3152 59.8796L57.455 61.9059L58.9515 61.8026L59.0913 63.8289L57.5948 63.9322L57.7346 65.9585L59.2311 65.8553L59.3709 67.8816L57.8744 67.9848L58.0142 70.0111L59.5107 69.9079L59.6505 71.9342L58.1541 72.0375L58.2939 74.0638L59.7903 73.9605L59.8965 75.5H59V76.051L58.4337 76.0901L58.4964 77H57V75.5H55V77H53V75.5H51V77H49V75.5H47V77H45V75.5H43V77H41V75.5H39V77H37V75.5H35V77H33V75.5H31V77H29V75.5H27V77H25V75.5H23V77H21V75.5H19V77H17V75.5H15V77H13V75.5H11V77H9V75.5H7V77H5V75.5H3V77H1.5V75.9868H1V75.5H0V73.9605H1.5V71.9342H0V69.9079H1.5V67.8815H0V65.8552H1.5V63.8289H0V61.8026H1.5V59.7763H0V57.75H1.5V55.7237H0V53.6974H1.5V51.671H0V49.6447H1.5V47.6184H0V45.5921H1.5V43.5658H0V41.5395H1.5V39.5132H0V37.4868H1.5V35.4605H0V33.4342H1.5V31.4079H0V29.3816H1.5V27.3553H0V25.3289H1.5V23.3026H0V21.2763H1.5V19.25H0V17.2237H1.5V15.1974H0V13.1711H1.5V11.1447H0V9.11842H1.5V7.09211H0V5.06579H1.5V3.03947H0V1.5H0.976562V1.01316H1.5V0H2.92969V1.5H4.88281V0H6.83594V1.5H8.78906V0H10.7422V1.5H12.6953V0H14.6484V1.5H16.6016V0H18.5547V1.5H20.5078V0H22.4609V1.5H24.4141V0H26.3672V1.5H28.3203V0H30.2734V1.5H32.2266V0H34.1797V1.5H36.1328V0H38.0859V1.5H40.0391V0H41.9922V1.5H43.9453V0H45.8984V1.5H47.8516V0H49.8047V1.5H51.7578V0H53.7109V0.0673766L53.1911 0.103245L53.261 1.11641L53.7109 1.08536V1.5H54.6875V1.01799L54.7574 1.01316Z" stroke="#13E95C" stroke-opacity="0.96" stroke-width="3" stroke-dasharray="2 2"/>
</svg>
