<svg width="149" height="62" viewBox="0 0 149 62" fill="none" xmlns="http://www.w3.org/2000/svg">
<path d="M111.035 0.861104L112.104 2.58332L110.83 3.37462L111.899 5.09684L113.174 4.30554L114.243 6.02777L112.969 6.81907L114.038 8.54129L115.312 7.74999L116.382 9.47221L115.108 10.2635L116.177 11.9857L117.451 11.1944L118.521 12.9167L117.247 13.708L118.316 15.4302L119.59 14.6389L120.66 16.3611L119.385 17.1524L120.455 18.8746L121.729 18.0833L122.799 19.8055L121.524 20.5968L122.594 22.3191L123.868 21.5278L124.938 23.25L123.663 24.0413L124.733 25.7635L126.007 24.9722L127.076 26.6944L125.802 27.4857L126.872 29.208L128.146 28.4167L129.215 30.1389L127.941 30.9302L129.01 32.6524L130.285 31.8611L131.354 33.5833L130.08 34.3746L131.149 36.0969L132.424 35.3056L133.493 37.0278L132.219 37.8191L133.288 39.5413L134.562 38.75L135.632 40.4722L134.358 41.2635L135.427 42.9857L136.701 42.1944L137.771 43.9167L136.497 44.708L137.566 46.4302L138.84 45.6389L139.91 47.3611L138.635 48.1524L139.705 49.8746L140.979 49.0833L142.049 50.8056L140.774 51.5969L141.844 53.3191L143.118 52.5278L144.188 54.25L142.913 55.0413L143.983 56.7635L145.257 55.9722L146.326 57.6944L145.052 58.4857L146.122 60.208L147.396 59.4167L148.069 60.5H147.993V61.432L147.191 61.9302L147.234 62H145.98V60.5H143.966V62H141.953V60.5H139.939V62H137.926V60.5H135.912V62H133.899V60.5H131.885V62H129.872V60.5H127.858V62H125.845V60.5H123.831V62H121.817V60.5H119.804V62H117.79V60.5H115.777V62H113.763V60.5H111.75V62H109.736V60.5H107.723V62H105.709V60.5H103.696V62H101.682V60.5H99.6689V62H97.6553V60.5H95.6418V62H93.6283V60.5H91.6148V62H89.6013V60.5H87.5878V62H85.5743V60.5H83.5608V62H81.5473V60.5H79.5337V62H77.5202V60.5H75.5067V62H73.4932V60.5H71.4797V62H69.4662V60.5H67.4527V62H65.4392V60.5H63.4257V62H61.4121V60.5H59.3986V62H57.3851V60.5H55.3716V62H53.3581V60.5H51.3446V62H49.3311V60.5H47.3176V62H45.304V60.5H43.2905V62H41.277V60.5H39.2635V62H37.25V60.5H35.2365V62H33.223V60.5H31.2095V62H29.1959V60.5H27.1824V62H25.1689V60.5H23.1554V62H21.1419V60.5H19.1284V62H17.1149V60.5H15.1014V62H13.0878V60.5H11.0743V62H9.06081V60.5H7.0473V62H5.03378V60.5H3.02027V62H1.5V61.0312H1.00676V60.5H0V59.0938H1.5V57.1562H0V55.2188H1.5V53.2812H0V51.3438H1.5V49.4062H0V47.4688H1.5V45.5312H0V43.5938H1.5V41.6562H0V39.7188H1.5V37.7812H0V35.8438H1.5V33.9062H0V31.9688H1.5V30.0312H0V28.0938H1.5V26.1562H0V24.2188H1.5V22.2812H0V20.3438H1.5V18.4062H0V16.4688H1.5V14.5312H0V12.5938H1.5V10.6562H0V8.71875H1.5V6.78125H0V4.84375H1.5V2.90625H0V1.5H0.986643V0.96875H1.5V0H2.95986V1.5H4.93307V0H6.90628V1.5H8.8795V0H10.8527V1.5H12.8259V0H14.7991V1.5H16.7724V0H18.7456V1.5H20.7188V0H22.692V1.5H24.6652V0H26.6384V1.5H28.6116V0H30.5848V1.5H32.558V0H34.5313V1.5H36.5045V0H38.4777V1.5H40.4509V0H42.4241V1.5H44.3973V0H46.3705V1.5H48.3438V0H50.317V1.5H52.2902V0H54.2634V1.5H56.2366V0H58.2098V1.5H60.183V0H62.1563V1.5H64.1295V0H66.1027V1.5H68.0759V0H70.0491V1.5H72.0223V0H73.9955V1.5H75.9688V0H77.942V1.5H79.9152V0H81.8884V1.5H83.8616V0H85.8348V1.5H87.808V0H89.7812V1.5H91.7545V0H93.7277V1.5H95.7009V0H97.6741V1.5H99.6473V0H101.621V1.5H103.594V0H105.567V1.5H107.54V0H109.513V0.612654L109.226 0.7913L109.513 1.2546V1.5H109.666L109.76 1.6524L110.006 1.5H110.5V1.19315L111.035 0.861104Z" stroke="#EFE8E8" stroke-opacity="0.96" stroke-width="3" stroke-dasharray="2 2"/>
</svg>
