<svg width="29" height="19" viewBox="0 0 29 19" fill="none" xmlns="http://www.w3.org/2000/svg">
<path d="M28.9684 2.33007C28.9684 1.03908 27.9293 0 26.6384 0H2.33007C1.03908 0 0 1.03908 0 2.33007V16.5939C0 17.8534 1.03908 18.8925 2.33007 18.8925H26.6698C27.9608 18.8925 28.9999 17.8534 28.9999 16.5624V2.33007H28.9684ZM26.4494 2.51899V4.72311H2.51899V2.51899H26.4494ZM2.51899 16.3735V8.5016H26.4494V16.3735H2.51899ZM24.0879 12.2801C24.0879 12.9728 23.5211 13.5396 22.8284 13.5396H16.8458C16.153 13.5396 15.5863 12.9728 15.5863 12.2801C15.5863 11.5874 16.153 11.0206 16.8458 11.0206H22.8284C23.5211 11.0206 24.0879 11.5874 24.0879 12.2801Z" fill="black"/>
</svg>
