<svg width="394" height="234" viewBox="0 0 394 234" fill="none" xmlns="http://www.w3.org/2000/svg">
<g filter="url(#filter0_d_47_1005)">
<path fill-rule="evenodd" clip-rule="evenodd" d="M370.472 7.00814H23.5285C14.4046 7.00814 7.00814 13.7492 7.00814 22.0647V211.803C7.00814 220.118 14.4046 226.86 23.5285 226.86H370.472C379.596 226.86 386.992 220.118 386.992 211.803V22.0647C386.992 13.7492 379.596 7.00814 370.472 7.00814Z" fill="#EE5555"/>
</g>
<mask id="mask0_47_1005" style="mask-type:alpha" maskUnits="userSpaceOnUse" x="7" y="7" width="380" height="220">
<path fill-rule="evenodd" clip-rule="evenodd" d="M370.472 7.00814H23.5285C14.4046 7.00814 7.00814 13.7492 7.00814 22.0647V211.803C7.00814 220.119 14.4046 226.86 23.5285 226.86H370.472C379.596 226.86 386.992 220.119 386.992 211.803V22.0647C386.992 13.7492 379.596 7.00814 370.472 7.00814Z" fill="white"/>
</mask>
<g mask="url(#mask0_47_1005)">
<path fill-rule="evenodd" clip-rule="evenodd" d="M303.352 137.139C336.362 136.738 355.7 19.4215 384.501 35.5412C413.946 52.0209 417.8 32.5603 446.018 51.0593C476.322 70.9262 493.283 97.9025 501.582 133.155C510.886 172.67 521.278 203.803 497.578 236.775C473.681 270.02 460.265 290.197 421.021 301.937C389.611 311.334 357.806 311.579 325.794 318.662C283.698 327.976 243.442 364.195 202.645 350.256C162.843 336.656 156.167 332.34 154.68 290.337C153.094 245.547 152.566 255.46 170.198 214.249C179.508 192.488 200.332 189.348 214.249 170.198C228.001 151.274 241.117 153.018 258.3 137.139C282.697 114.594 270.123 137.543 303.352 137.139Z" fill="#FF7A00"/>
<path fill-rule="evenodd" clip-rule="evenodd" d="M231.783 159.185C251.756 219.649 140.582 269.757 86.9032 304.012C45.5972 330.372 -16.0876 305.471 -53.8478 336.699C-104.163 378.31 -92.4451 476.477 -152.531 502.027C-206.097 524.806 -266.192 478.972 -315.436 447.936C-363.517 417.633 -424.623 383.013 -430.977 326.536C-437.851 265.445 -375.314 220.439 -347.183 165.775C-332.056 136.379 -308.547 111.321 -303.417 78.6609C-294.054 19.0494 -355.741 -65.766 -305.554 -99.2689C-257.213 -131.539 -207.687 -40.3949 -152.531 -22.0646C-119.04 -10.9344 -79.3458 -31.5691 -48.7762 -13.9328C-18.2051 3.70439 155.095 -22.9275 184.227 -3.00349C247.04 39.9544 207.914 86.928 231.783 159.185Z" fill="#FF1887" fill-opacity="0.6"/>
</g>
<path opacity="0.401246" d="M338.137 190.274C347.521 190.274 355.129 183.315 355.129 174.73C355.129 166.144 347.521 159.185 338.137 159.185C328.752 159.185 321.144 166.144 321.144 174.73C321.144 183.315 328.752 190.274 338.137 190.274Z" fill="white"/>
<path opacity="0.859468" d="M325.715 204.925C335.1 204.925 342.708 197.965 342.708 189.38C342.708 180.795 335.1 173.836 325.715 173.836C316.331 173.836 308.723 180.795 308.723 189.38C308.723 197.965 316.331 204.925 325.715 204.925Z" fill="white"/>
<path opacity="0.859468" d="M346.832 205.292C356.218 205.292 363.825 198.332 363.825 189.747C363.825 181.162 356.218 174.202 346.832 174.202C337.448 174.202 329.84 181.162 329.84 189.747C329.84 198.332 337.448 205.292 346.832 205.292Z" fill="#D6E7E6"/>
<defs>
<filter id="filter0_d_47_1005" x="0" y="0" width="394" height="233.868" filterUnits="userSpaceOnUse" color-interpolation-filters="sRGB">
<feFlood flood-opacity="0" result="BackgroundImageFix"/>
<feColorMatrix in="SourceAlpha" type="matrix" values="0 0 0 0 0 0 0 0 0 0 0 0 0 0 0 0 0 0 127 0" result="hardAlpha"/>
<feOffset/>
<feGaussianBlur stdDeviation="3.5"/>
<feComposite in2="hardAlpha" operator="out"/>
<feColorMatrix type="matrix" values="0 0 0 0 0 0 0 0 0 0 0 0 0 0 0 0 0 0 0.25 0"/>
<feBlend mode="normal" in2="BackgroundImageFix" result="effect1_dropShadow_47_1005"/>
<feBlend mode="normal" in="SourceGraphic" in2="effect1_dropShadow_47_1005" result="shape"/>
</filter>
</defs>
</svg>
