<svg width="380" height="163" viewBox="0 0 380 163" fill="none" xmlns="http://www.w3.org/2000/svg">
<path d="M66.8333 38.5H57.1667C51.8279 38.5 47.5 42.8279 47.5 48.1667V57.8333" stroke="black" stroke-width="1.5" stroke-linecap="round" stroke-linejoin="round"/>
<path d="M115.167 38.5H124.833C130.172 38.5 134.5 42.8279 134.5 48.1667V57.8333" stroke="black" stroke-width="1.5" stroke-linecap="round" stroke-linejoin="round"/>
<path d="M110.333 62.6667V72.3333" stroke="black" stroke-width="1.5" stroke-linecap="round" stroke-linejoin="round"/>
<path d="M71.6665 62.6667V72.3333" stroke="black" stroke-width="1.5" stroke-linecap="round" stroke-linejoin="round"/>
<path d="M76.5 101.333C76.5 101.333 81.3333 106.167 91 106.167C100.667 106.167 105.5 101.333 105.5 101.333" stroke="black" stroke-width="1.5" stroke-linecap="round" stroke-linejoin="round"/>
<path d="M90.9998 62.6667V86.8333H86.1665" stroke="black" stroke-width="1.5" stroke-linecap="round" stroke-linejoin="round"/>
<path d="M66.8333 125.5H57.1667C51.8279 125.5 47.5 121.172 47.5 115.833V106.167" stroke="black" stroke-width="1.5" stroke-linecap="round" stroke-linejoin="round"/>
<path d="M115.167 125.5H124.833C130.172 125.5 134.5 121.172 134.5 115.833V106.167" stroke="black" stroke-width="1.5" stroke-linecap="round" stroke-linejoin="round"/>
<path d="M1 8C1 4.13401 4.13401 1 8 1H174C177.866 1 181 4.13401 181 8V152C181 155.866 177.866 159 174 159H8C4.13401 159 1 155.866 1 152V8Z" stroke="#56CCF2" stroke-width="2"/>
<path d="M289 25.5739C257.018 25.5739 231 51.5923 231 83.5739C231 90.6927 232.276 97.6471 234.792 104.243C235.118 105.099 235.934 105.626 236.799 105.626C237.054 105.626 237.313 105.58 237.564 105.484C238.673 105.062 239.229 103.82 238.806 102.712C236.477 96.6065 235.296 90.1678 235.296 83.5739C235.296 53.9613 259.387 29.8702 289 29.8702C318.613 29.8702 342.704 53.9613 342.704 83.5739C342.704 84.7602 343.665 85.722 344.852 85.722C346.038 85.722 347 84.7602 347 83.5739C347 51.5923 320.982 25.5739 289 25.5739Z" fill="black"/>
<path d="M289.03 36.3146C276.137 36.3146 262.78 42.553 253.323 53.002C244.948 62.2564 240.728 73.4776 241.759 83.7878L241.997 86.2002C243.675 102.912 243.673 102.912 240.522 109.146C240.303 109.58 240.069 110.043 239.82 110.539C239.29 111.6 239.72 112.891 240.781 113.421C241.089 113.576 241.416 113.648 241.739 113.648C242.527 113.648 243.286 113.213 243.662 112.46C243.907 111.97 244.138 111.513 244.355 111.084C248.072 103.73 248.038 103.394 246.268 85.7711L246.027 83.3598C245.116 74.2554 248.931 64.2409 256.494 55.8848C265.148 46.3205 277.331 40.6106 289.03 40.6106C312.72 40.6106 332.023 59.8836 332.023 83.5737V94.3143C332.023 95.5006 332.985 96.4624 334.172 96.4624C335.358 96.4624 336.32 95.5006 336.32 94.3143V83.5739C336.32 57.5149 315.089 36.3146 289.03 36.3146Z" fill="black"/>
<path d="M302.445 49.6104C298.166 47.9148 293.642 47.0552 289 47.0552C279.209 47.0552 270.04 50.805 263.183 57.6139C256.282 64.4663 252.481 73.6856 252.481 83.5737C252.481 89.0594 252.987 93.8435 253.433 98.0642C254.585 108.964 255.219 114.969 246.993 120.453C246.006 121.111 245.739 122.445 246.398 123.432C246.811 124.053 247.493 124.388 248.187 124.388C248.596 124.388 249.01 124.272 249.377 124.028C259.765 117.102 258.856 108.501 257.705 97.6133C257.271 93.4973 256.778 88.8329 256.778 83.5737C256.778 65.5053 270.932 51.3515 289 51.3515C293.098 51.3515 297.09 52.1094 300.862 53.6044C301.964 54.0408 303.214 53.5016 303.651 52.3987C304.088 51.296 303.548 50.0472 302.445 49.6104Z" fill="black"/>
<path d="M325.518 83.491C325.492 71.7668 319.783 60.6958 310.235 53.8607C309.271 53.1706 307.929 53.3919 307.238 54.3573C306.548 55.3218 306.77 56.6639 307.735 57.3545C316.18 63.4003 321.222 73.2019 321.222 83.5739C321.222 83.629 321.224 83.684 321.229 83.7386C321.25 84.0143 323.299 111.52 319.138 128.164C318.851 129.315 319.55 130.481 320.702 130.769C320.876 130.813 321.051 130.834 321.224 130.834C322.186 130.834 323.062 130.183 323.306 129.206C327.563 112.178 325.668 85.4942 325.518 83.491Z" fill="black"/>
<path d="M313.222 74.7325C309.523 64.6022 299.789 57.7959 289 57.7959C274.786 57.7959 263.222 69.3594 263.222 83.5737C263.222 83.6627 263.228 83.752 263.239 83.8401C263.26 84.0089 265.327 100.908 263.244 115.492C263.076 116.667 263.892 117.755 265.067 117.923C265.17 117.937 265.272 117.945 265.373 117.945C266.425 117.945 267.344 117.171 267.497 116.1C269.583 101.496 267.734 85.2337 267.519 83.4457C267.588 71.6597 277.198 62.0922 289 62.0922C297.992 62.0922 306.104 67.7641 309.185 76.2061C309.592 77.3206 310.827 77.8926 311.94 77.4873C313.055 77.0806 313.628 75.847 313.222 74.7325Z" fill="black"/>
<path d="M289.03 68.5367C280.738 68.5367 273.978 75.2822 273.978 83.5737C273.978 83.6575 273.975 83.7416 273.985 83.8243C274.027 84.1815 278.055 119.695 267.922 133.881C267.233 134.846 267.455 136.188 268.42 136.877C268.799 137.148 269.234 137.277 269.666 137.277C270.336 137.277 270.996 136.965 271.415 136.378C282.288 121.156 278.582 86.2845 278.26 83.4556C278.323 77.587 283.147 72.8328 289.031 72.8328C294.953 72.8328 299.801 77.6509 299.801 83.5735V98.6104C299.801 99.7967 300.763 100.759 301.949 100.759C303.136 100.759 304.098 99.7969 304.098 98.6104V83.5735C304.097 75.2822 297.321 68.5367 289.03 68.5367Z" fill="black"/>
<path d="M334.312 99.5235C333.143 99.4201 332.087 100.294 331.985 101.476L330.674 116.456C330.57 117.638 331.444 118.68 332.626 118.783C332.69 118.789 332.753 118.791 332.816 118.791C333.918 118.791 334.856 117.948 334.953 116.83L336.264 101.85C336.368 100.668 335.494 99.6268 334.312 99.5235Z" fill="black"/>
<path d="M264.414 122.601C263.427 121.943 262.093 122.21 261.435 123.197L257.138 129.642C256.48 130.629 256.747 131.962 257.734 132.62C258.1 132.865 258.514 132.981 258.923 132.981C259.618 132.981 260.299 132.645 260.713 132.025L265.009 125.58C265.668 124.593 265.401 123.259 264.414 122.601Z" fill="black"/>
<path d="M314.73 83.1237C314.482 81.9637 313.339 81.2247 312.18 81.4732C311.02 81.7218 310.281 82.8636 310.529 84.0236C310.592 84.3173 316.697 113.599 306.412 134.168C305.881 135.23 306.311 136.52 307.372 137.051C307.681 137.205 308.009 137.278 308.332 137.278C309.119 137.278 309.878 136.843 310.255 136.09C321.207 114.187 315 84.3821 314.73 83.1237Z" fill="black"/>
<path d="M291.084 80.905C290.796 79.7534 289.627 79.0553 288.479 79.3417C287.328 79.6297 286.628 80.796 286.915 81.9467C286.957 82.113 290.989 98.7395 284.813 117.265C284.438 118.391 285.047 119.607 286.172 119.982C286.397 120.057 286.626 120.093 286.852 120.093C287.751 120.093 288.589 119.524 288.889 118.624C295.456 98.9235 291.265 81.6311 291.084 80.905Z" fill="black"/>
<path d="M285.501 124.542C284.401 124.102 283.15 124.637 282.709 125.739L278.413 136.48C277.973 137.581 278.508 138.831 279.61 139.272C279.871 139.377 280.141 139.426 280.407 139.426C281.259 139.426 282.066 138.915 282.402 138.075L286.698 127.334C287.139 126.233 286.603 124.983 285.501 124.542Z" fill="black"/>
<path d="M301.891 107.119C301.89 107.119 301.89 107.119 301.889 107.119C300.704 107.119 299.743 108.122 299.741 109.306C299.741 109.432 299.648 121.996 293.47 136.41C293.003 137.501 293.508 138.774 294.599 139.242C294.875 139.36 295.162 139.421 295.444 139.421C296.277 139.421 297.07 138.936 297.419 138.121C303.962 122.854 304.037 109.852 304.037 109.308C304.037 108.122 303.077 107.119 301.891 107.119Z" fill="black"/>
<path d="M199 8.5C199 4.634 202.134 1.5 206 1.5H372C375.866 1.5 379 4.63401 379 8.5V154.5C379 158.366 375.866 161.5 372 161.5H206C202.134 161.5 199 158.366 199 154.5V8.5Z" stroke="#56CCF2" stroke-width="2"/>
</svg>
