<svg width="26" height="26" viewBox="0 0 26 26" fill="none" xmlns="http://www.w3.org/2000/svg">
<path d="M13.8159 26H12.1841C10.8643 26 9.79057 24.9263 9.79057 23.6065V23.0545C9.22949 22.8752 8.68436 22.6489 8.16065 22.3779L7.76943 22.7692C6.8219 23.7179 5.3041 23.69 4.3841 22.7687L3.2308 21.6155C2.30918 20.6949 2.28267 19.1776 3.23111 18.2302L3.62203 17.8393C3.351 17.3156 3.12478 16.7705 2.94546 16.2094H2.39347C1.07377 16.2094 0 15.1357 0 13.8159V12.1841C0 10.8643 1.07377 9.79063 2.39353 9.79063H2.94552C3.12482 9.22949 3.35105 8.68441 3.62207 8.1607L3.23086 7.76954C2.28297 6.82266 2.30913 5.30521 3.23116 4.3842L4.38455 3.23086C5.30669 2.30745 6.82414 2.28439 7.76984 3.23116L8.1607 3.62203C8.68441 3.35105 9.22955 3.12478 9.79063 2.94546V2.39347C9.79063 1.07372 10.8643 0 12.1841 0H13.8159C15.1357 0 16.2094 1.07372 16.2094 2.39347V2.94552C16.7704 3.12478 17.3156 3.35105 17.8393 3.62207L18.2306 3.23086C19.178 2.28216 20.6959 2.30999 21.6159 3.23122L22.7692 4.38446C23.6908 5.30506 23.7173 6.82236 22.7689 7.76979L22.3779 8.1607C22.6489 8.68441 22.8751 9.22944 23.0545 9.79063H23.6065C24.9262 9.79063 26 10.8643 26 12.1841V13.8159C26 15.1357 24.9262 16.2094 23.6065 16.2094H23.0545C22.8751 16.7705 22.6489 17.3156 22.3779 17.8393L22.7692 18.2306C23.717 19.1774 23.6909 20.6948 22.7689 21.6159L21.6154 22.7692C20.6933 23.6926 19.1759 23.7157 18.2301 22.7689L17.8393 22.378C17.3156 22.649 16.7704 22.8752 16.2094 23.0546V23.6066C16.2094 24.9263 15.1357 26 13.8159 26ZM8.41531 20.7781C9.14286 21.2084 9.92591 21.5335 10.7427 21.7442C11.079 21.8311 11.3141 22.1345 11.3141 22.4819V23.6065C11.3141 24.0863 11.7044 24.4766 12.1841 24.4766H13.8159C14.2957 24.4766 14.686 24.0863 14.686 23.6065V22.4819C14.686 22.1345 14.921 21.8311 15.2573 21.7442C16.0742 21.5335 16.8572 21.2084 17.5848 20.7781C17.8841 20.6011 18.2652 20.6493 18.5111 20.8952L19.3078 21.6919C19.6512 22.0358 20.2029 22.0279 20.5379 21.6922L21.692 20.5383C22.0262 20.2044 22.0374 19.6528 21.6923 19.308L20.8953 18.511C20.6494 18.2651 20.6013 17.884 20.7782 17.5847C21.2085 16.8572 21.5335 16.0742 21.7443 15.2573C21.8311 14.921 22.1346 14.686 22.4819 14.686H23.6065C24.0863 14.686 24.4766 14.2957 24.4766 13.816V12.1841C24.4766 11.7044 24.0863 11.3141 23.6065 11.3141H22.4819C22.1345 11.3141 21.8311 11.0791 21.7443 10.7428C21.5335 9.92596 21.2085 9.14291 20.7782 8.41542C20.6013 8.11612 20.6494 7.73495 20.8953 7.48906L21.692 6.69236C22.0364 6.34837 22.0274 5.79689 21.6923 5.46219L20.5384 4.30818C20.2038 3.97322 19.6521 3.96343 19.3081 4.30788L18.5111 5.10488C18.2653 5.35082 17.884 5.39897 17.5848 5.22194C16.8572 4.79167 16.0742 4.46662 15.2575 4.25582C14.9211 4.16904 14.686 3.86567 14.686 3.51828V2.39347C14.686 1.91374 14.2957 1.52344 13.816 1.52344H12.1843C11.7044 1.52344 11.3141 1.91374 11.3141 2.39347V3.51818C11.3141 3.86557 11.0791 4.16894 10.7427 4.25572C9.92596 4.46652 9.14291 4.79156 8.41537 5.22184C8.11597 5.39881 7.73485 5.35067 7.48897 5.10479L6.69231 4.30808C6.34882 3.96419 5.79719 3.97216 5.46219 4.30772L4.30808 5.46178C3.97384 5.79562 3.96266 6.34725 4.30778 6.69196L5.10479 7.48897C5.35067 7.73485 5.39881 8.11601 5.22184 8.41531C4.79156 9.14282 4.46656 9.92586 4.25578 10.7427C4.16894 11.079 3.86557 11.314 3.51822 11.314H2.39353C1.9138 11.314 1.52344 11.7043 1.52344 12.1841V13.8159C1.52344 14.2957 1.9138 14.686 2.39353 14.686H3.51818C3.86557 14.686 4.16888 14.921 4.25572 15.2572C4.46652 16.0741 4.79156 16.8571 5.22179 17.5847C5.39876 17.884 5.35062 18.2651 5.10473 18.511L4.30803 19.3077C3.96363 19.6517 3.97262 20.2032 4.30772 20.5378L5.46172 21.6919C5.79622 22.0269 6.34791 22.0366 6.6919 21.6921L7.48887 20.8951C7.67006 20.714 8.047 20.5604 8.41531 20.7781Z" fill="black"/>
<path d="M13.0001 18.6569C9.88076 18.6569 7.34307 16.1192 7.34307 13C7.34307 9.88066 9.88076 7.34291 13.0001 7.34291C16.1195 7.34291 18.6572 9.88066 18.6572 13C18.6572 16.1192 16.1195 18.6569 13.0001 18.6569ZM13.0001 8.86635C10.7208 8.86635 8.86651 10.7207 8.86651 13C8.86651 15.2792 10.7208 17.1336 13.0001 17.1336C15.2793 17.1336 17.1337 15.2792 17.1337 13C17.1337 10.7207 15.2794 8.86635 13.0001 8.86635Z" fill="black"/>
</svg>
