<svg width="22" height="22" viewBox="0 0 22 22" fill="none" xmlns="http://www.w3.org/2000/svg">
<path d="M11 22C7.87187 22 4.88187 20.6616 2.79667 18.3279C0.993275 16.311 0 13.7085 0 11C0 4.93451 4.93456 0 11 0C13.7082 0 16.3108 0.993167 18.3285 2.79678C20.6616 4.88295 21.9995 7.87295 21.9995 11C21.9995 17.0654 17.0652 22 11 22Z" fill="#FFBE00"/>
<path d="M20.3313 10.9999C20.3313 11.4886 20.2936 11.9687 20.221 12.437C20.1493 12.9009 20.0433 13.354 19.9055 13.7932C18.8571 17.1398 15.9749 19.6754 12.4362 20.2211C12.2704 20.247 12.1035 20.2679 11.9357 20.2846C11.6278 20.3158 11.3162 20.3315 11.0003 20.3315C8.23438 20.3315 5.74939 19.128 4.0411 17.2162C4.0271 17.2006 4.01316 17.1845 3.99858 17.1689C2.54809 15.5241 1.6687 13.3648 1.6687 10.9999C1.6687 5.84643 5.84627 1.66827 11.0003 1.66827C13.3657 1.66827 15.525 2.54825 17.1698 3.9982C17.1854 4.01274 17.2016 4.02673 17.2172 4.04072C19.1284 5.75015 20.3313 8.23406 20.3313 10.9999Z" fill="#F4502A"/>
<path d="M4.00097 17.1715C4.20748 17.4055 4.42535 17.6288 4.65415 17.841C4.44032 17.6425 4.23563 17.4339 4.04118 17.2163C4.02788 17.2015 4.0147 17.1863 4.00097 17.1715ZM3.52002 16.5799C3.52061 16.5806 3.52115 16.5813 3.52169 16.5821C3.52115 16.5814 3.52061 16.5806 3.52002 16.5799ZM3.50108 16.5544C3.5028 16.5568 3.50463 16.5592 3.50641 16.5616C3.50463 16.5592 3.50285 16.5568 3.50108 16.5544ZM3.48337 16.5304C3.48703 16.5354 3.49085 16.5406 3.49451 16.5455C3.49085 16.5406 3.48703 16.5355 3.48337 16.5304ZM3.46808 16.5097C3.47201 16.5151 3.47573 16.5201 3.47966 16.5254C3.47578 16.5201 3.47196 16.5149 3.46808 16.5097ZM3.45205 16.4877C3.45689 16.4943 3.46152 16.5006 3.46642 16.5073C3.46163 16.5008 3.45678 16.4942 3.45205 16.4877ZM8.80281 1.92853C4.70931 2.91642 1.66846 6.60276 1.66846 10.9995C1.66846 13.0505 2.32981 14.9468 3.45129 16.4867C2.32987 14.9466 1.66873 13.0506 1.66873 11C1.66873 6.6033 4.70931 2.91653 8.80281 1.92853Z" fill="#C29100"/>
<path d="M10.9999 1.6684C10.2431 1.6684 9.50742 1.75844 8.80279 1.92852C4.70929 2.91652 1.6687 6.60328 1.6687 11C1.6687 13.0506 2.32984 14.9466 3.45127 16.4867C3.45148 16.4869 3.45181 16.4874 3.45202 16.4877C3.45676 16.4942 3.4616 16.5009 3.46639 16.5073C3.46688 16.508 3.46763 16.509 3.46811 16.5097C3.47199 16.515 3.47581 16.5201 3.47968 16.5254C3.48092 16.5271 3.48216 16.5288 3.4834 16.5305C3.48706 16.5354 3.49088 16.5406 3.49454 16.5456C3.49675 16.5486 3.4989 16.5514 3.50111 16.5544C3.50288 16.5568 3.50466 16.5592 3.50643 16.5616C3.51096 16.5677 3.51553 16.5738 3.5201 16.5799C3.52064 16.5807 3.52124 16.5815 3.52177 16.5822C3.67355 16.7852 3.83351 16.9818 4.001 17.1716C4.01472 17.1864 4.02791 17.2016 4.0412 17.2164C4.23566 17.434 4.44034 17.6426 4.65418 17.8411C4.75929 17.9386 4.86688 18.0339 4.97646 18.1266C3.60234 16.5012 2.77403 14.4 2.77403 12.105C2.77403 6.95156 6.95171 2.774 12.1056 2.774C14.4 2.774 16.5018 3.60231 18.1266 4.97632C16.4155 2.95311 13.8579 1.6684 10.9999 1.6684Z" fill="#BA3D20"/>
<path d="M14.8552 7.07117L7.07104 14.8554L12.4363 20.2211C15.975 19.6754 18.8571 17.1398 19.9056 13.7933C20.0434 13.3541 20.1494 12.9009 20.221 12.437L15.3102 7.52623" fill="#BA3D20"/>
<path d="M15.3105 7.52657L14.4732 6.68927L10.9997 10.1627L7.52621 6.68927L6.68896 7.52657L10.1624 11L6.68896 14.4735L7.52621 15.3107L10.9997 11.8373L14.4732 15.3107L15.3105 14.4735L11.837 11L15.3105 7.52657Z" fill="white"/>
</svg>
