<svg width="393" height="28" viewBox="0 0 393 28" fill="none" xmlns="http://www.w3.org/2000/svg">
<g clip-path="url(#clip0_32_69)">
<path d="M39.5 7.12174C39.5 5.87392 38.4957 4.86957 37.2478 4.86957H13.7522C12.5043 4.86957 11.5 5.87392 11.5 7.12174V20.9087C11.5 22.1261 12.5043 23.1304 13.7522 23.1304H37.2783C38.5261 23.1304 39.5304 22.1261 39.5304 20.8783V7.12174H39.5ZM37.0652 7.30435V9.43479H13.9348V7.30435H37.0652ZM13.9348 20.6957V13.087H37.0652V20.6957H13.9348ZM34.7826 16.7391C34.7826 17.4087 34.2348 17.9565 33.5652 17.9565H27.7826C27.113 17.9565 26.5652 17.4087 26.5652 16.7391C26.5652 16.0696 27.113 15.5217 27.7826 15.5217H33.5652C34.2348 15.5217 34.7826 16.0696 34.7826 16.7391Z" fill="black"/>
</g>
<mask id="mask0_32_69" style="mask-type:alpha" maskUnits="userSpaceOnUse" x="127" y="2" width="25" height="24">
<path fill-rule="evenodd" clip-rule="evenodd" d="M127.829 3.49999C127.829 4.14166 128.354 4.66666 128.996 4.66666H130.162L134.362 13.5217L132.787 16.3683C131.936 17.9317 133.056 19.8333 134.829 19.8333H147.662C148.304 19.8333 148.829 19.3083 148.829 18.6667C148.829 18.025 148.304 17.5 147.662 17.5H134.829L136.112 15.1667H144.804C145.679 15.1667 146.449 14.6883 146.846 13.965L151.022 6.39333C151.454 5.62333 150.894 4.66666 150.007 4.66666H132.741L131.959 2.99833C131.772 2.58999 131.352 2.33333 130.909 2.33333H128.996C128.354 2.33333 127.829 2.85833 127.829 3.49999ZM134.829 21C133.546 21 132.507 22.05 132.507 23.3333C132.507 24.6167 133.546 25.6667 134.829 25.6667C136.112 25.6667 137.162 24.6167 137.162 23.3333C137.162 22.05 136.112 21 134.829 21ZM144.174 23.3333C144.174 22.05 145.212 21 146.496 21C147.779 21 148.829 22.05 148.829 23.3333C148.829 24.6167 147.779 25.6667 146.496 25.6667C145.212 25.6667 144.174 24.6167 144.174 23.3333Z" fill="black"/>
</mask>
<g mask="url(#mask0_32_69)">
<rect x="125.5" y="-0.666672" width="28" height="28" fill="#333333"/>
</g>
<g clip-path="url(#clip1_32_69)">
<path d="M265.959 5.31351H258.607L259.251 4.7375C259.298 4.69522 259.34 4.64789 259.377 4.59635C260.317 3.27829 260.009 1.44118 258.691 0.50111C258.063 0.0528707 257.271 -0.104556 256.519 0.0697077C255.767 0.243784 255.124 0.7329 254.757 1.41153L253.5 3.7312L252.243 1.41153C251.876 0.732807 251.234 0.243597 250.481 0.0696142C249.729 -0.104556 248.937 0.0527772 248.309 0.501017C246.991 1.44108 246.683 3.27819 247.623 4.59625C247.66 4.64789 247.703 4.69522 247.75 4.7374L248.393 5.31342H241.041C240.567 5.31342 240.182 5.69786 240.182 6.17211V11.6165C240.182 12.0907 240.567 12.4751 241.041 12.4751H241.269V27.1415C241.269 27.6158 241.653 28.0002 242.127 28.0002H264.873C265.347 28.0002 265.732 27.6158 265.732 27.1415V12.4751H265.959C266.434 12.4751 266.818 12.0907 266.818 11.6165V6.1722C266.818 5.69796 266.433 5.31351 265.959 5.31351ZM256.267 2.22953C256.402 1.97968 256.629 1.80682 256.906 1.74275C256.981 1.72535 257.056 1.71684 257.131 1.71684C257.331 1.71684 257.525 1.77895 257.694 1.89924C257.959 2.08828 258.135 2.36909 258.188 2.6903C258.237 2.98401 258.179 3.27894 258.025 3.53L256.033 5.31351H254.596L256.267 2.22953ZM248.812 2.69039C248.866 2.36937 249.041 2.08838 249.306 1.89933C249.538 1.73433 249.817 1.67867 250.094 1.74284C250.371 1.80682 250.598 1.97978 250.733 2.22962L252.404 5.31351H250.968L248.976 3.53C248.821 3.27903 248.763 2.98392 248.812 2.69039ZM250.305 26.2829H242.986V12.4752H250.305V26.2829ZM254.978 26.2829H252.022V12.4752H254.978V26.2829ZM264.014 26.2829H256.696V12.4752H264.014V26.2829ZM265.101 10.7579H241.9V7.03089H265.101V10.7579H265.101Z" fill="black"/>
</g>
<g clip-path="url(#clip2_32_69)">
<path d="M366.962 25.3333H365.372C364.086 25.3333 363.04 24.2872 363.04 23.0012V22.4634C362.493 22.2887 361.962 22.0682 361.451 21.8041L361.07 22.1854C360.147 23.1097 358.668 23.0826 357.772 22.1849L356.648 21.0613C355.75 20.1643 355.724 18.6859 356.648 17.7628L357.029 17.3818C356.765 16.8716 356.545 16.3405 356.37 15.7937H355.832C354.546 15.7937 353.5 14.7476 353.5 13.4616V11.8717C353.5 10.5857 354.546 9.53958 355.832 9.53958H356.37C356.545 8.99284 356.765 8.46173 357.029 7.95145L356.648 7.57032C355.724 6.64772 355.75 5.16918 356.648 4.27178L357.772 3.14802C358.671 2.24828 360.149 2.22582 361.071 3.14831L361.451 3.52916C361.962 3.26513 362.493 3.04466 363.04 2.86994V2.3321C363.04 1.04619 364.086 0 365.372 0H366.962C368.248 0 369.294 1.04619 369.294 2.3321V2.86999C369.84 3.04466 370.372 3.26513 370.882 3.5292L371.263 3.14802C372.186 2.22364 373.665 2.25076 374.562 3.14836L375.685 4.27203C376.583 5.16903 376.609 6.64742 375.685 7.57056L375.304 7.95145C375.568 8.46173 375.789 8.99279 375.963 9.53958H376.501C377.787 9.53958 378.833 10.5857 378.833 11.8717V13.4616C378.833 14.7476 377.787 15.7937 376.501 15.7937H375.963C375.789 16.3405 375.568 16.8716 375.304 17.3818L375.685 17.7631C376.609 18.6857 376.583 20.1642 375.685 21.0616L374.561 22.1854C373.663 23.0851 372.184 23.1076 371.263 22.185L370.882 21.8042C370.372 22.0683 369.84 22.2887 369.294 22.4635V23.0013C369.294 24.2872 368.248 25.3333 366.962 25.3333ZM361.7 20.2453C362.408 20.6646 363.171 20.9814 363.967 21.1867C364.295 21.2713 364.524 21.5669 364.524 21.9054V23.0012C364.524 23.4687 364.904 23.849 365.372 23.849H366.962C367.429 23.849 367.809 23.4687 367.809 23.0012V21.9054C367.809 21.5669 368.038 21.2713 368.366 21.1867C369.162 20.9814 369.925 20.6646 370.634 20.2453C370.926 20.0729 371.297 20.1198 371.536 20.3595L372.313 21.1357C372.647 21.4707 373.185 21.463 373.511 21.136L374.636 20.0116C374.961 19.6863 374.972 19.1488 374.636 18.813L373.86 18.0364C373.62 17.7968 373.573 17.4254 373.745 17.1338C374.165 16.425 374.481 15.662 374.687 14.8661C374.771 14.5384 375.067 14.3094 375.405 14.3094H376.501C376.969 14.3094 377.349 13.9291 377.349 13.4617V11.8717C377.349 11.4043 376.969 11.024 376.501 11.024H375.405C375.067 11.024 374.771 10.7951 374.687 10.4673C374.481 9.67144 374.165 8.90848 373.745 8.19964C373.573 7.90801 373.62 7.53661 373.86 7.29703L374.636 6.52076C374.971 6.18559 374.963 5.64825 374.636 5.32213L373.512 4.19771C373.186 3.87135 372.648 3.8618 372.313 4.19742L371.536 4.97399C371.297 5.21362 370.925 5.26053 370.634 5.08804C369.925 4.66881 369.162 4.35209 368.366 4.1467C368.038 4.06214 367.809 3.76655 367.809 3.42806V2.3321C367.809 1.86467 367.429 1.48438 366.962 1.48438H365.372C364.904 1.48438 364.524 1.86467 364.524 2.3321V3.42797C364.524 3.76645 364.295 4.06204 363.967 4.1466C363.171 4.35199 362.408 4.6687 361.7 5.08795C361.408 5.26038 361.037 5.21347 360.797 4.97389L360.021 4.19762C359.686 3.86254 359.149 3.87031 358.822 4.19727L357.698 5.32173C357.372 5.64701 357.361 6.1845 357.697 6.52037L358.474 7.29694C358.713 7.53652 358.76 7.90791 358.588 8.19953C358.169 8.90838 357.852 9.67135 357.647 10.4672C357.562 10.795 357.266 11.0239 356.928 11.0239H355.832C355.365 11.0239 354.984 11.4042 354.984 11.8717V13.4616C354.984 13.9291 355.365 14.3094 355.832 14.3094H356.928C357.266 14.3094 357.562 14.5384 357.647 14.866C357.852 15.6619 358.169 16.4249 358.588 17.1338C358.76 17.4254 358.713 17.7968 358.474 18.0364L357.698 18.8126C357.362 19.1478 357.371 19.6852 357.697 20.0112L358.822 21.1357C359.148 21.4621 359.685 21.4716 360.02 21.1359L360.797 20.3593C360.973 20.1829 361.341 20.0332 361.7 20.2453Z" fill="black"/>
<path d="M366.167 18.1786C363.127 18.1786 360.655 15.7059 360.655 12.6667C360.655 9.6273 363.127 7.15463 366.167 7.15463C369.206 7.15463 371.679 9.6273 371.679 12.6667C371.679 15.7059 369.206 18.1786 366.167 18.1786ZM366.167 8.63901C363.946 8.63901 362.139 10.4458 362.139 12.6667C362.139 14.8874 363.946 16.6942 366.167 16.6942C368.388 16.6942 370.194 14.8874 370.194 12.6667C370.194 10.4458 368.388 8.63901 366.167 8.63901Z" fill="black"/>
</g>
<defs>
<clipPath id="clip0_32_69">
<rect width="28" height="28" fill="white" transform="translate(11.5)"/>
</clipPath>
<clipPath id="clip1_32_69">
<rect width="28" height="28" fill="white" transform="translate(239.5)"/>
</clipPath>
<clipPath id="clip2_32_69">
<rect width="28" height="28" fill="white" transform="translate(353.5)"/>
</clipPath>
</defs>
</svg>
