<svg width="27" height="28" viewBox="0 0 27 28" fill="none" xmlns="http://www.w3.org/2000/svg">
<path d="M25.777 5.31328H18.425L19.0682 4.73727C19.1155 4.69499 19.1578 4.64766 19.1945 4.59612C20.1346 3.27806 19.827 1.44095 18.5088 0.500882C17.8802 0.0526418 17.0884 -0.104785 16.3363 0.0694789C15.5842 0.243555 14.942 0.732672 14.5743 1.4113L13.3177 3.73098L12.0611 1.4113C11.6934 0.732578 11.0512 0.243368 10.2991 0.0693853C9.54689 -0.104785 8.75508 0.0525483 8.12668 0.500788C6.80862 1.44086 6.50097 3.27797 7.44095 4.59603C7.4778 4.64766 7.52018 4.69499 7.56723 4.73718L8.21049 5.31319H0.85869C0.384446 5.31319 0 5.69764 0 6.17188V11.6162C0 12.0905 0.384446 12.4749 0.85869 12.4749H1.08618V27.1413C1.08618 27.6155 1.47062 28 1.94487 28H24.6908C25.165 28 25.5495 27.6155 25.5495 27.1413V12.4749H25.777C26.2512 12.4749 26.6357 12.0905 26.6357 11.6162V6.17197C26.6357 5.69773 26.2511 5.31328 25.777 5.31328ZM16.0844 2.2293C16.2197 1.97946 16.4467 1.80659 16.7236 1.74252C16.7986 1.72512 16.8737 1.71661 16.9482 1.71661C17.1485 1.71661 17.343 1.77872 17.5117 1.89901C17.7767 2.08805 17.9522 2.36886 18.006 2.69007C18.0551 2.98379 17.997 3.27871 17.8422 3.52977L15.8503 5.31328H14.4138L16.0844 2.2293ZM8.62946 2.69017C8.68315 2.36914 8.85872 2.08815 9.1239 1.89911C9.35523 1.7341 9.63491 1.67845 9.91197 1.74261C10.1888 1.80659 10.4158 1.97955 10.5511 2.22939L12.2217 5.31328H10.7853L8.79324 3.52977C8.63844 3.27881 8.58035 2.98369 8.62946 2.69017ZM10.1222 26.2827H2.80346V12.475H10.1222V26.2827ZM14.7958 26.2827H11.8396V12.475H14.7958V26.2827ZM23.8321 26.2827H16.5133V12.475H23.8321V26.2827ZM24.9183 10.7576H1.71729V7.03066H24.9182V10.7576H24.9183Z" fill="black"/>
</svg>
