<svg width="51" height="14" viewBox="0 0 51 14" fill="none" xmlns="http://www.w3.org/2000/svg">
<path fill-rule="evenodd" clip-rule="evenodd" d="M0.436177 4.55688C0.136516 4.97711 -0.0152663 5.4724 0.00121286 5.97521C0.00121286 7.46795 1.0316 8.21388 2.35383 8.21828C2.84474 8.24443 3.33521 8.16342 3.78535 7.98163C4.2355 7.79985 4.63273 7.52233 4.94454 7.17212C5.17828 7.54053 5.48401 7.86607 5.84612 8.13199C5.90423 8.16178 5.97058 8.17485 6.0365 8.16905C6.10285 8.1633 6.16573 8.1389 6.2169 8.09956L6.22167 8.10191C6.53478 7.84839 7.10288 7.39185 7.42552 7.14753C7.45284 7.1227 7.47496 7.09306 7.49014 7.06043C7.50488 7.02776 7.51312 6.99281 7.51312 6.95735C7.51355 6.92184 7.50618 6.88633 7.49187 6.85346C7.47756 6.82059 7.45588 6.79084 7.42856 6.7656C7.05561 6.40639 6.84441 5.9301 6.83747 5.43281V3.1913C6.83747 3.11544 6.83794 3.04006 6.83839 2.96524C6.84365 2.10505 6.84846 1.31894 6.14708 0.71746C5.47621 0.225771 4.6362 -0.0279113 3.77928 0.00243944C2.28488 0.00243944 0.618749 0.510684 0.266615 2.20176C0.259676 2.23575 0.26011 2.27098 0.267916 2.30485C0.275721 2.33872 0.2909 2.37071 0.312583 2.39898C0.334266 2.42722 0.36202 2.45085 0.394111 2.46888C0.426203 2.48692 0.462197 2.49875 0.499058 2.50363L2.02685 2.65319C2.09667 2.64187 2.16085 2.61036 2.20942 2.56297C2.25843 2.51563 2.28922 2.45481 2.29789 2.38999C2.35991 2.12947 2.52166 1.8985 2.7541 1.73979C2.98655 1.58108 3.27363 1.50574 3.56158 1.52737C3.73028 1.52005 3.89811 1.55008 4.05119 1.61522C4.20471 1.68036 4.33828 1.77853 4.44192 1.90146C4.61452 2.22336 4.68044 2.58513 4.63187 2.94138V3.12648C4.47855 3.14293 4.31724 3.15833 4.15088 3.17422C3.33053 3.25254 2.38758 3.34258 1.67732 3.62749C1.1695 3.81207 0.736271 4.13669 0.436177 4.55688ZM39.5352 0.0696188C37.2631 0.0696188 36.0029 1.85663 36.0026 4.15115C36.0029 6.43368 37.2457 8.26587 39.5352 8.26746C41.7343 8.26746 43.1281 6.48133 43.1281 4.23082C43.1346 1.90154 41.8692 0.0696188 39.5352 0.0696188ZM31.9379 12.7415C32.2957 11.9289 33.091 10.1054 32.7154 9.66236C32.3464 9.22693 30.2956 9.44667 29.324 9.55078L29.2739 9.55615C28.9842 9.58774 28.9421 9.35617 29.2006 9.19062C30.888 8.10655 33.653 8.41982 33.9735 8.78451C34.294 9.14919 33.892 11.6908 32.3052 12.8992C32.2388 12.9556 32.1538 12.9892 32.0641 12.9948C31.9392 12.9956 31.8681 12.8988 31.9383 12.7399L31.9379 12.7415ZM7.2655 9.34253C6.98969 9.1142 7.23644 8.80214 7.5695 8.98248C11.6329 11.1082 16.2258 12.2233 20.8977 12.2186C24.3895 12.204 27.8441 11.5571 31.0654 10.3145C31.5649 10.123 31.9795 10.6188 31.4929 10.9487C28.544 12.9396 24.2699 13.9997 20.5881 13.9997C15.6747 14.0245 10.9265 12.3648 7.2655 9.34253ZM38.3171 3.94627C38.3169 4.85845 38.3167 6.74529 39.5357 6.74529C40.7573 6.74529 40.8154 5.19373 40.8106 4.24722C40.8366 3.58766 40.7573 2.92794 40.5756 2.28962C40.5261 2.07648 40.3952 1.88702 40.2065 1.75582C40.0179 1.62458 39.7841 1.5608 39.5482 1.5758C38.3921 1.5762 38.3171 3.01552 38.3171 3.91764V3.94627ZM2.29963 5.72528C2.29963 6.34749 2.65046 6.76676 3.25368 6.76676C3.48179 6.75801 3.70296 6.69291 3.8942 6.57814C4.08502 6.46338 4.2394 6.30327 4.34001 6.1146C4.59284 5.64207 4.69518 5.11287 4.6349 4.58891V4.27885C3.4974 4.27685 2.29789 4.4989 2.29789 5.72332L2.29963 5.72528ZM21.0317 4.55456C20.732 4.97515 20.5807 5.471 20.5985 5.97405L20.5967 5.97209C20.5967 7.46643 21.6245 8.21388 22.9472 8.21828C23.4377 8.24407 23.9277 8.16302 24.3774 7.98123C24.8275 7.79949 25.2248 7.52205 25.5366 7.17212C25.7708 7.54017 26.0765 7.86559 26.4377 8.13199C26.4967 8.16126 26.5631 8.17389 26.6294 8.16789C26.6958 8.1619 26.7586 8.13758 26.8098 8.0984L26.8124 8.10072C27.1268 7.84759 27.6958 7.38985 28.015 7.14633C28.0423 7.12182 28.0644 7.09246 28.08 7.06003C28.0952 7.0276 28.1034 6.99269 28.1039 6.95735C28.1047 6.92196 28.0978 6.88673 28.0835 6.85386C28.0696 6.82095 28.0484 6.791 28.0215 6.7656C27.6503 6.4056 27.4404 5.9295 27.4339 5.43281V3.1913C27.4339 3.11728 27.4343 3.04373 27.4347 2.97071C27.4397 2.10859 27.4443 1.32009 26.7404 0.71746C26.07 0.225891 25.2304 -0.0277913 24.3748 0.00243944C22.8804 0.00243944 21.2091 0.510684 20.8621 2.20176C20.8543 2.23587 20.8543 2.27118 20.8621 2.30525C20.8704 2.33932 20.8855 2.37139 20.9072 2.39974C20.9293 2.4281 20.9575 2.45217 20.9896 2.47004C21.0222 2.48792 21.0581 2.49915 21.0959 2.50363L22.6172 2.65319C22.6879 2.64255 22.7529 2.6112 22.8023 2.56377C22.8518 2.51635 22.883 2.45529 22.8921 2.38999C22.9533 2.12943 23.115 1.89854 23.347 1.73979C23.5795 1.58104 23.8665 1.50558 24.1545 1.52737C24.3228 1.51985 24.4906 1.55004 24.6437 1.61522C24.7968 1.6804 24.9303 1.77841 25.0335 1.90146C25.2079 2.22284 25.2747 2.58489 25.2261 2.94138V3.12452C25.077 3.14023 24.9204 3.155 24.7591 3.17022C23.9349 3.24795 22.9857 3.33747 22.2724 3.62437C21.765 3.80911 21.3314 4.13393 21.0317 4.55456ZM22.8895 5.72528C22.8895 6.34749 23.2425 6.76676 23.847 6.76676C24.0747 6.75745 24.2954 6.69211 24.4858 6.57738C24.6766 6.46266 24.8306 6.30283 24.9312 6.1146C25.184 5.64207 25.2864 5.11287 25.2261 4.58891V4.27885C24.0873 4.27685 22.8878 4.4989 22.8878 5.72332L22.8895 5.72528ZM48.6963 8.04409C48.7467 8.08656 48.8113 8.11187 48.8789 8.11595L50.4579 8.11907C50.5299 8.11943 50.6001 8.0962 50.6556 8.05349C50.7111 8.01074 50.7484 7.95124 50.761 7.88558V3.23747C50.761 2.52346 50.761 1.53319 50.3495 0.941991C50.1526 0.661477 49.8794 0.433307 49.5572 0.280474C49.235 0.127641 48.875 0.0552632 48.5133 0.0707785C47.4305 0.0707785 46.8108 0.552831 46.3732 1.56092H46.3485V0.433547C46.3316 0.375685 46.2956 0.324141 46.2449 0.286712C46.1941 0.249284 46.1317 0.22817 46.067 0.225811H44.6108C44.5367 0.223772 44.4647 0.247044 44.4083 0.291391C44.3523 0.335777 44.3164 0.397918 44.3072 0.465577L44.309 7.84767C44.3107 7.91737 44.3406 7.98407 44.3935 8.03394C44.446 8.08384 44.518 8.11303 44.5935 8.11595H46.1547C46.1937 8.11699 46.2327 8.11095 46.2696 8.098C46.3064 8.08504 46.3398 8.06553 46.3684 8.04061C46.3971 8.01566 46.4201 7.98583 46.4361 7.95272C46.4521 7.91961 46.4608 7.88394 46.4621 7.84767V3.87585C46.4318 3.39792 46.5172 2.91974 46.7128 2.47628C46.7869 2.30761 46.9127 2.1623 47.074 2.05765C47.2358 1.95304 47.4266 1.89334 47.6235 1.88622C48.6212 1.88622 48.6113 2.88784 48.6036 3.67683C48.6029 3.74447 48.6022 3.81054 48.6022 3.87429V7.88242C48.6126 7.9446 48.646 8.00167 48.6963 8.04409ZM17.3551 8.11283C17.2801 8.10907 17.2094 8.07952 17.1574 8.03006C17.1049 7.98059 17.0745 7.91481 17.0724 7.84571V3.93327C17.0953 3.47158 17.081 3.00896 17.029 2.5493C16.9969 2.35248 16.882 2.17509 16.7089 2.05609C16.5359 1.93713 16.3191 1.8863 16.1057 1.91433C15.9023 1.91977 15.7046 1.97983 15.5381 2.08736C15.3711 2.19485 15.2423 2.34496 15.1668 2.51923C15.0363 2.98037 14.9873 3.45782 15.0216 3.93327V7.84571C15.0207 7.88166 15.012 7.91709 14.9964 7.95C14.9804 7.98287 14.9578 8.01266 14.9296 8.03745C14.9014 8.06229 14.8685 8.08152 14.832 8.09448C14.7956 8.10743 14.7566 8.11375 14.718 8.11283H13.149C13.074 8.10963 13.0029 8.0804 12.9504 8.03082C12.8975 7.98127 12.8671 7.91509 12.8654 7.84571V3.93327C12.8654 3.85067 12.8668 3.76416 12.8683 3.67536C12.8818 2.87915 12.8983 1.89914 11.8944 1.89914C10.8089 1.89914 10.8111 2.99322 10.8127 3.83657L10.8129 3.93327V7.84651C10.8116 7.88238 10.8029 7.91757 10.7873 7.9504C10.7717 7.98319 10.7491 8.01274 10.7209 8.03745C10.6927 8.06221 10.6593 8.0816 10.6229 8.09448C10.5865 8.10739 10.5479 8.11375 10.5089 8.11283H8.93684C8.86615 8.11075 8.7985 8.08516 8.74689 8.04061C8.69529 7.99603 8.66276 7.93533 8.65582 7.87035V0.49057C8.65669 0.454701 8.66493 0.419511 8.68098 0.386682C8.69659 0.353852 8.71914 0.324341 8.74733 0.299628C8.77551 0.274876 8.80891 0.255482 8.84533 0.242606C8.88133 0.22973 8.92036 0.223292 8.95939 0.224251H10.4234C10.4954 0.226051 10.5644 0.252323 10.6168 0.298029C10.6698 0.343775 10.7023 0.405796 10.7083 0.472215V1.4352H10.7352C10.8666 1.02792 11.1411 0.672434 11.5158 0.42495C11.8901 0.177466 12.3437 0.0520642 12.8038 0.0684192C13.7874 0.0684192 14.4036 0.504685 14.8425 1.4352C14.9912 1.08379 15.2375 0.774683 15.5567 0.538995C15.8763 0.303307 16.2571 0.149394 16.6617 0.0926518C17.0663 0.0359092 17.4796 0.0782162 17.8608 0.215654C18.2415 0.353052 18.5767 0.580902 18.8317 0.875612C19.2572 1.407 19.2439 2.1454 19.2314 2.84322C19.2293 2.95977 19.2272 3.07545 19.2272 3.18858L19.2255 7.84571C19.2246 7.88166 19.2159 7.91713 19.1999 7.95C19.1843 7.98287 19.1617 8.01226 19.1336 8.03709C19.1054 8.06189 19.072 8.08152 19.036 8.09448C18.9995 8.10743 18.9605 8.11367 18.9215 8.11283H17.3551ZM29.0506 6.5879V7.65945L29.0488 7.65789C29.051 7.72475 29.0792 7.78845 29.1286 7.83752C29.1781 7.88658 29.2448 7.91765 29.3173 7.92461C29.3519 7.92445 29.3862 7.91581 29.417 7.90002C30.26 7.5007 31.1937 7.292 32.1417 7.29084C33.0893 7.28964 34.0238 7.49618 34.8681 7.89338C34.9106 7.90921 34.957 7.91517 35.0021 7.91057C35.0477 7.90593 35.0915 7.89082 35.1288 7.86683C35.1665 7.84283 35.1973 7.81068 35.2181 7.7731C35.2389 7.73551 35.2493 7.69348 35.248 7.65125V6.52428C35.245 6.43966 35.2177 6.35705 35.1691 6.28527C35.1205 6.21349 35.052 6.15491 34.9714 6.115C34.0628 5.6835 33.0463 5.4836 32.0263 5.5363L34.7046 2.04049C34.954 1.72579 35.0949 1.52933 35.0949 1.37778V0.472975C35.0958 0.436986 35.0884 0.401597 35.0733 0.368327C35.0585 0.335097 35.0364 0.304747 35.0082 0.279674C34.98 0.254642 34.9471 0.235048 34.9106 0.222292C34.8738 0.209536 34.8347 0.203858 34.7957 0.205497H29.6351C29.597 0.204258 29.5584 0.210456 29.5228 0.223452C29.4868 0.236448 29.4543 0.256162 29.427 0.281274C29.3997 0.306346 29.3784 0.336097 29.3641 0.369127C29.3498 0.402117 29.3433 0.437506 29.3446 0.472975V1.52929C29.3437 1.56512 29.3511 1.60047 29.3658 1.63358C29.3806 1.66669 29.4027 1.69656 29.4309 1.72143C29.4586 1.7463 29.4916 1.76594 29.528 1.77845C29.5644 1.79097 29.6035 1.79641 29.6425 1.79445H32.3395L29.2396 5.86352C29.0996 6.08225 29.0341 6.33442 29.0506 6.5879Z" fill="white"/>
</svg>
