<svg width="28" height="28" viewBox="0 0 28 28" fill="none" xmlns="http://www.w3.org/2000/svg">
<mask id="mask0_47_1265" style="mask-type:alpha" maskUnits="userSpaceOnUse" x="2" y="2" width="24" height="24">
<path fill-rule="evenodd" clip-rule="evenodd" d="M2.3291 3.49999C2.3291 4.14166 2.8541 4.66666 3.49577 4.66666H4.66243L8.86243 13.5217L7.28743 16.3683C6.43577 17.9317 7.55577 19.8333 9.3291 19.8333H22.1624C22.8041 19.8333 23.3291 19.3083 23.3291 18.6667C23.3291 18.025 22.8041 17.5 22.1624 17.5H9.3291L10.6124 15.1667H19.3041C20.1791 15.1667 20.9491 14.6883 21.3458 13.965L25.5224 6.39333C25.9541 5.62333 25.3941 4.66666 24.5074 4.66666H7.24077L6.4591 2.99833C6.27243 2.58999 5.85243 2.33333 5.4091 2.33333H3.49577C2.8541 2.33333 2.3291 2.85833 2.3291 3.49999ZM9.3291 21C8.04577 21 7.00743 22.05 7.00743 23.3333C7.00743 24.6167 8.04577 25.6667 9.3291 25.6667C10.6124 25.6667 11.6624 24.6167 11.6624 23.3333C11.6624 22.05 10.6124 21 9.3291 21ZM18.6741 23.3333C18.6741 22.05 19.7124 21 20.9958 21C22.2791 21 23.3291 22.05 23.3291 23.3333C23.3291 24.6167 22.2791 25.6667 20.9958 25.6667C19.7124 25.6667 18.6741 24.6167 18.6741 23.3333Z" fill="black"/>
</mask>
<g mask="url(#mask0_47_1265)">
<rect y="-0.666672" width="28" height="28" fill="#333333"/>
</g>
</svg>
