<svg width="54" height="62" viewBox="0 0 54 62" fill="none" xmlns="http://www.w3.org/2000/svg">
<path d="M49.2935 0.96875L49.4429 2.90625L47.9473 3.02158L48.0967 4.95908L49.5923 4.84375L49.7417 6.78125L48.2461 6.89658L48.3956 8.83408L49.8911 8.71875L50.0405 10.6562L48.545 10.7716L48.6944 12.7091L50.1899 12.5938L50.3394 14.5312L48.8438 14.6466L48.9932 16.5841L50.4888 16.4688L50.6382 18.4062L49.1426 18.5216L49.292 20.4591L50.7876 20.3438L50.937 22.2812L49.4415 22.3966L49.5909 24.3341L51.0864 24.2188L51.2358 26.1562L49.7403 26.2716L49.8897 28.2091L51.3853 28.0938L51.5347 30.0312L50.0391 30.1466L50.1885 32.0841L51.6841 31.9688L51.8335 33.9062L50.3379 34.0216L50.4874 35.9591L51.9829 35.8438L52.1323 37.7812L50.6368 37.8966L50.7862 39.8341L52.2817 39.7188L52.4312 41.6562L50.9356 41.7716L51.085 43.7091L52.5806 43.5938L52.73 45.5312L51.2344 45.6466L51.3838 47.5841L52.8794 47.4688L53.0288 49.4062L51.5332 49.5216L51.6827 51.4591L53.1782 51.3438L53.3276 53.2812L51.8321 53.3966L51.9815 55.3341L53.4771 55.2188L53.6265 57.1562L52.1309 57.2716L52.2803 59.2091L53.7759 59.0938L53.8843 60.5H53.0357V61.0999L52.4297 61.1466L52.4955 62H51.1071V60.5H49.1786V62H47.25V60.5H45.3214V62H43.3929V60.5H41.4643V62H39.5357V60.5H37.6071V62H35.6786V60.5H33.75V62H31.8214V60.5H29.8929V62H27.9643V60.5H26.0357V62H24.1071V60.5H22.1786V62H20.25V60.5H18.3214V62H16.3929V60.5H14.4643V62H12.5357V60.5H10.6071V62H8.67857V60.5H6.75V62H4.82143V60.5H2.89286V62H1.5V61.0312H0.964286V60.5H0V59.0938H1.5V57.1562H0V55.2188H1.5V53.2812H0V51.3438H1.5V49.4062H0V47.4688H1.5V45.5312H0V43.5938H1.5V41.6562H0V39.7188H1.5V37.7812H0V35.8438H1.5V33.9062H0V31.9688H1.5V30.0312H0V28.0938H1.5V26.1562H0V24.2188H1.5V22.2812H0V20.3438H1.5V18.4062H0V16.4688H1.5V14.5312H0V12.5938H1.5V10.6562H0V8.71875H1.5V6.78125H0V4.84375H1.5V2.90625H0V1.5H1.02539V0.96875H1.5V0H3.07617V1.5H5.12695V0H7.17773V1.5H9.22852V0H11.2793V1.5H13.3301V0H15.3809V1.5H17.4316V0H19.4824V1.5H21.5332V0H23.584V1.5H25.6348V0H27.6855V1.5H29.7363V0H31.7871V1.5H33.8379V0H35.8887V1.5H37.9395V0H39.9902V1.5H42.041V0H44.0918V1.5H46.1426V0H48.1934V0.079075L47.7232 0.115333L47.7979 1.08408L48.1934 1.05359V1.5H49.2188V0.974511L49.2935 0.96875Z" stroke="#EFE8E8" stroke-opacity="0.96" stroke-width="3" stroke-dasharray="2 2"/>
</svg>
